<?xml version="1.0" encoding="utf-8"?>
<!-- Generator: Adobe Illustrator 26.2.1, SVG Export Plug-In . SVG Version: 6.00 Build 0)  -->
<svg version="1.1" xmlns="http://www.w3.org/2000/svg" xmlns:xlink="http://www.w3.org/1999/xlink" x="0px" y="0px"
	 viewBox="0 0 1920 1080" style="enable-background:new 0 0 1920 1080;" xml:space="preserve">
<style type="text/css">
	.st0{fill:#CCCCCC;}
	.st1{fill:#FFFFFF;}
	.st2{fill:#454E5F;}
	.st3{fill:#F89192;}
	.st4{fill:#E0F0FF;}
	.st5{fill:#F9DE8D;}
	.st6{font-family:'MyriadPro-Regular';}
	.st7{font-size:32px;}
	.st8{display:none;}
	.st9{display:inline;}
</style>
<g id="Background_Layer">
	
		<image style="overflow:visible;" width="1000" height="500" xlink:href="../../../20201105-VM-Keywords.png"  transform="matrix(1.92 0 0 0.632 0 0)">
	</image>
	<g>
		<g>
			<g>
				<path class="st0" d="M208.8,955.8L52.7,963c-17.4-42.5-34.8-85-52.2-127.5c52.8-4.2,106.6-8,159.4-12.2
					C180.1,865.8,196.2,911.5,208.8,955.8z"/>
			</g>
			<g>
				<path class="st1" d="M211.1,943.9L55,951.1c-17.4-42.5-34.8-85-52.2-127.5c52.8-4.2,106.6-8,159.4-12.2
					C182.4,854,198.5,899.6,211.1,943.9z"/>
			</g>
			<g>
				<path class="st2" d="M55,952.6c-0.8,0-1.6-0.4-1.8-1L1,824.1c-0.2-0.4-0.1-0.9,0.2-1.3c0.3-0.4,0.8-0.6,1.4-0.7
					C29,820,56.1,818,82.3,816c26.2-2,53.3-4,79.7-6.1c0.9-0.1,1.7,0.3,2,1c18.7,39.5,35.2,84.1,49,132.7c0.1,0.4,0,0.9-0.3,1.2
					c-0.3,0.3-0.9,0.6-1.4,0.6l-156.1,7.2C55.1,952.6,55.1,952.6,55,952.6z M5.3,824.9l51.1,124.7l152.3-7.1
					c-13.5-47.3-29.6-90.9-47.8-129.6c-25.9,2.1-52.5,4.1-78.3,6C57.2,820.9,31,822.9,5.3,824.9z"/>
			</g>
		</g>
		<g>
			<path class="st3" d="M32.8,831.5c-12.3,0-12.3,14.8,0,14.8C45.1,846.3,45.1,831.5,32.8,831.5z"/>
		</g>
		<g>
			<path class="st3" d="M47.3,860c-12.3,0-12.3,14.8,0,14.8C59.6,874.8,59.7,860,47.3,860z"/>
		</g>
		<g>
			<path class="st3" d="M61.9,888.5c-12.3,0-12.3,14.8,0,14.8C74.2,903.3,74.2,888.5,61.9,888.5z"/>
		</g>
		<g>
			<path class="st3" d="M76.4,916.9c-12.3,0-12.3,14.8,0,14.8C88.7,931.8,88.7,916.9,76.4,916.9z"/>
		</g>
	</g>
	<g>
		<g>
			<g>
				<path class="st3" d="M433.8,956.8c-58.6-0.9-128.8-8.4-188-15c0.5-44.3,3.9-85.8,11.5-131.7c61.1,0.2,122.2,5.3,182.4,15.4
					L433.8,956.8z"/>
			</g>
			<g>
				<path class="st2" d="M433.8,958C433.8,958,433.8,958,433.8,958c-57.5-0.8-124.4-7.9-188.1-15.1c-0.6-0.1-1.1-0.6-1.1-1.2
					c0.5-45.9,4.2-87.8,11.5-131.9c0.1-0.6,0.6-1,1.2-1c0,0,0,0,0,0c61.1,0.2,122.5,5.3,182.6,15.4c0.6,0.1,1.1,0.6,1,1.2
					l-5.9,131.4C435.1,957.5,434.5,958,433.8,958z M247.1,940.7c62.8,7.1,128.8,14,185.5,14.9l5.8-129.2
					c-59.3-9.9-119.8-15-180-15.2C251.3,854.5,247.7,895.7,247.1,940.7z"/>
			</g>
		</g>
		<g>
			<g>
				<path class="st4" d="M428.1,947.8c-58.6-0.9-128.8-8.4-188-15c0.5-44.3,3.9-85.8,11.5-131.7c61.1,0.2,122.2,5.3,182.4,15.4
					L428.1,947.8z"/>
			</g>
			<g>
				<path class="st2" d="M428.1,949C428.1,949,428.1,949,428.1,949c-57.5-0.8-124.4-7.9-188.1-15.1c-0.6-0.1-1.1-0.6-1.1-1.2
					c0.5-45.9,4.2-87.8,11.5-131.9c0.1-0.6,0.6-1,1.2-1c0,0,0,0,0,0c61.1,0.2,122.5,5.3,182.6,15.4c0.6,0.1,1.1,0.6,1,1.2
					l-5.9,131.4C429.3,948.5,428.8,949,428.1,949z M241.4,931.8c62.8,7.1,128.8,14,185.5,14.9l5.8-129.2
					c-59.3-9.9-119.8-15-180-15.2C245.5,845.5,241.9,886.7,241.4,931.8z"/>
			</g>
		</g>
		<g>
			<g>
				<path class="st5" d="M421,942.1c-58.6-0.9-128.8-8.4-188-15c0.5-44.3,3.9-85.8,11.5-131.7c61.1,0.2,122.2,5.3,182.4,15.4
					L421,942.1z"/>
			</g>
			<g>
				<path class="st2" d="M421,943.3C421,943.3,421,943.3,421,943.3c-57.5-0.8-124.4-7.9-188.1-15.1c-0.6-0.1-1.1-0.6-1.1-1.2
					c0.5-45.9,4.2-87.8,11.5-131.9c0.1-0.6,0.6-1,1.2-1c0,0,0,0,0,0c61.1,0.2,122.5,5.4,182.6,15.4c0.6,0.1,1.1,0.6,1,1.2
					l-5.9,131.4C422.2,942.8,421.7,943.3,421,943.3z M234.3,926c62.8,7.1,128.8,14,185.5,14.9l5.8-129.2
					c-59.3-9.9-119.8-15-180-15.2C238.5,839.7,234.9,880.9,234.3,926z"/>
			</g>
		</g>
		<g>
			<g>
				<path class="st1" d="M375.6,799.9c-0.8,5.2-1.7,10.3-2.6,15.4c-0.1,0.7-0.2,1.7-0.9,2.3c-0.6,0.5-1.6,0.4-2.3,0.4
					c-17.1-1.1-34.2-3.3-50.9-6.7c-1-0.2-2.2-0.4-2.6-1.4c-0.3-0.7-0.2-1.6-0.2-2.3c0.4-3.7,0.8-7.3,1.2-11c0.2-1.8,0.4-3.6,0.6-5.4
					c0.1-1.2-0.1-3.3,0.9-4.2c0.5-0.4,1.3-0.5,2-0.5c3.9,0.3,7.8,0.5,11.6,0.9c1.6,0.2,3.2,0.3,4.8,0.5c0.8-1.9,1.6-3.7,2.3-5.6
					c0,0,0,0,0,0c-0.6-3-0.9-6.1,0.2-9c0.9-2.3,2.9-4.3,5.6-5c2-0.5,4-0.2,5.6,0.8c0.1,0,0.1,0,0.2-0.1c2.6-0.7,5.3,0,7,2
					c1.5,1.8,2,4.3,1.6,6.5c-0.5,2.7-2.2,5-3.9,7.2c-0.1,2-0.1,3.9-0.1,5.9c3.5,0.6,7,1.3,10.5,2c1.9,0.4,3.8,0.8,5.6,1.1
					c1,0.2,3.5,0.3,4.1,1.3c0.2,0.3,0.2,0.7,0.2,1.2C376.3,797.4,375.7,799.1,375.6,799.9z"/>
			</g>
			<g>
				<path class="st2" d="M376.3,796.2c0-0.5,0-0.9-0.2-1.2c-0.6-1-3.1-1.1-4.1-1.3c-1.9-0.4-3.8-0.8-5.6-1.1c-3.5-0.7-7-1.4-10.5-2
					c0-2,0.1-3.9,0.1-5.9c1.7-2.2,3.4-4.5,3.9-7.2c0.4-2.2-0.1-4.7-1.6-6.5c-1.7-2-4.4-2.7-7-2c-0.1,0-0.1,0-0.2,0.1
					c-1.6-1-3.7-1.3-5.6-0.8c-2.6,0.7-4.6,2.6-5.6,5c-1.2,2.9-0.9,6-0.2,9c0,0,0,0,0,0c-0.8,1.9-1.6,3.7-2.3,5.6
					c-1.6-0.2-3.2-0.4-4.8-0.5c-3.9-0.4-7.8-0.6-11.6-0.9c-0.7,0-1.5,0-2,0.5c-1,0.9-0.8,3-0.9,4.2c-0.2,1.8-0.4,3.6-0.6,5.4
					c-0.4,3.7-0.8,7.3-1.2,11c-0.1,0.8-0.2,1.6,0.2,2.3c0.4,1,1.6,1.2,2.6,1.4c16.8,3.4,33.8,5.6,50.9,6.7c0.7,0,1.7,0.1,2.3-0.4
					c0.6-0.5,0.7-1.5,0.9-2.3c0.9-5.1,1.9-10.3,2.6-15.4C375.7,799.1,376.3,797.4,376.3,796.2z M353.3,771.5c0.9,0,1.8,0.3,2.4,1
					c1.2,1.1,1.5,2.9,1.3,4.4c-0.4,2.4-2,4.5-3.6,6.5c-0.2,0.2-0.2,0.4-0.3,0.6c-0.1,0.1-0.1,0.3-0.1,0.4c-0.1,1.9-0.1,3.8-0.1,5.8
					l0,0c-1-0.2-1.9-0.3-2.9-0.5c0-1.9,0.1-3.8,0.1-5.7c1.7-2.2,3.4-4.5,3.9-7.2C354.4,775,354.1,773.1,353.3,771.5z M348,776.4
					c0.3-1.5,1.1-3,2.4-4c0.7,1.1,0.9,2.5,0.7,3.7c-0.3,2.1-1.6,4-3,5.8C347.8,780,347.6,778.2,348,776.4z M347.2,786.5
					c0,0.9,0,1.8-0.1,2.7c-0.3-0.1-0.7-0.1-1-0.1l0,0C346.4,788.2,346.8,787.4,347.2,786.5z M342.6,782.4c-0.5-2.2-0.9-4.5-0.4-6.8
					c0.4-1.7,1.4-3.5,3.1-4.4c0.8-0.4,1.8-0.6,2.7-0.5c0,0,0,0,0,0c-1,0.9-1.8,2-2.3,3.2c-1.2,2.9-0.9,6-0.2,9c0,0,0,0,0,0
					c-0.8,1.9-1.6,3.7-2.3,5.6c-0.9-0.1-1.9-0.3-2.8-0.4c0.7-1.6,1.4-3.2,2-4.9c0,0,0,0,0,0C342.6,783.1,342.7,782.7,342.6,782.4z
					 M330.7,811.1c-0.4-0.1-0.8-0.1-1.2-0.2c-0.6-0.1-1.1-0.2-1.7-0.3c-3.1-0.5-6.2-1.1-9.2-1.8c0.7-6.6,1.4-13.3,2.2-19.9
					c5.2,0.3,10.4,0.7,15.6,1.3c1,0.1,2,0.2,3,0.4c0.9,0.1,1.9,0.2,2.8,0.4c-2.9,6.9-5.8,13.8-8.7,20.6
					C332.5,811.4,331.6,811.2,330.7,811.1z M350.4,813.7c-0.1,0-0.3,0-0.4-0.1c-1-0.1-2-0.2-2.9-0.4c-3.5-0.4-7-0.9-10.6-1.4
					c2.9-6.9,5.8-13.8,8.7-20.7l0,0c0.6,0.1,1.3,0.2,1.9,0.3c1,0.1,1.9,0.3,2.9,0.4c1,0.2,1.9,0.3,2.9,0.5l0,0
					c-0.1,7.2-0.1,14.4,0,21.6C352,813.9,351.2,813.8,350.4,813.7z M370.4,815.4c-3.2,0.1-6.3-0.2-9.5-0.5c-1.7-0.2-3.5-0.4-5.2-0.6
					c-0.1-7.1-0.1-14.3,0-21.4c2.3,0.4,4.7,0.8,7,1.3c3.6,0.7,7.2,1.4,10.8,2.2C372.7,802.8,371.6,809.1,370.4,815.4z"/>
			</g>
		</g>
	</g>
	<g>
		<g>
			<g>
				<path class="st3" d="M938.6,976.8c-58.6-0.9-128.8-8.4-188-15c0.5-44.3,3.9-85.8,11.5-131.7c61.1,0.2,122.2,5.3,182.4,15.4
					L938.6,976.8z"/>
			</g>
			<g>
				<path class="st2" d="M938.6,977.9C938.6,977.9,938.6,977.9,938.6,977.9c-57.5-0.8-124.4-7.9-188.1-15.1
					c-0.6-0.1-1.1-0.6-1.1-1.2c0.5-45.9,4.2-87.8,11.5-131.9c0.1-0.6,0.6-1,1.2-1c0,0,0,0,0,0c61.1,0.2,122.5,5.3,182.6,15.4
					c0.6,0.1,1.1,0.6,1,1.2l-5.9,131.4C939.9,977.4,939.3,977.9,938.6,977.9z M751.9,960.7c62.8,7.1,128.8,14,185.5,14.9l5.8-129.2
					c-59.3-9.9-119.8-15-180-15.2C756.1,874.4,752.5,915.6,751.9,960.7z"/>
			</g>
		</g>
		<g>
			<g>
				<path class="st4" d="M932.9,967.8c-58.6-0.9-128.8-8.4-188-15c0.5-44.3,3.9-85.8,11.5-131.7c61.1,0.2,122.2,5.3,182.4,15.4
					L932.9,967.8z"/>
			</g>
			<g>
				<path class="st2" d="M932.9,969C932.9,969,932.9,969,932.9,969c-57.5-0.8-124.4-7.9-188.1-15.1c-0.6-0.1-1.1-0.6-1.1-1.2
					c0.5-45.9,4.2-87.8,11.5-131.9c0.1-0.6,0.6-1,1.2-1c0,0,0,0,0,0c61.1,0.2,122.5,5.3,182.6,15.4c0.6,0.1,1.1,0.6,1,1.2
					l-5.9,131.4C934.1,968.5,933.5,969,932.9,969z M746.2,951.7c62.8,7.1,128.8,14,185.5,14.9l5.8-129.2
					c-59.3-9.9-119.8-15-180-15.2C750.3,865.4,746.7,906.7,746.2,951.7z"/>
			</g>
		</g>
		<g>
			<g>
				<path class="st5" d="M925.8,962c-58.6-0.9-128.8-8.4-188-15c0.5-44.3,3.9-85.8,11.5-131.7c61.1,0.2,122.2,5.3,182.4,15.4
					L925.8,962z"/>
			</g>
			<g>
				<path class="st2" d="M925.8,963.2C925.8,963.2,925.8,963.2,925.8,963.2c-57.5-0.8-124.4-7.9-188.1-15.1
					c-0.6-0.1-1.1-0.6-1.1-1.2c0.5-45.9,4.2-87.8,11.5-131.9c0.1-0.6,0.6-1,1.2-1c0,0,0,0,0,0c61.1,0.2,122.5,5.4,182.6,15.4
					c0.6,0.1,1.1,0.6,1,1.2l-5.9,131.4C927,962.7,926.5,963.2,925.8,963.2z M739.1,945.9c62.8,7.1,128.8,14,185.5,14.9l5.8-129.2
					c-59.3-9.9-119.8-15-180-15.2C743.3,859.7,739.6,900.9,739.1,945.9z"/>
			</g>
		</g>
		<g>
			<g>
				<path class="st1" d="M880.4,819.8c-0.8,5.2-1.7,10.3-2.6,15.4c-0.1,0.7-0.2,1.7-0.9,2.3c-0.6,0.5-1.6,0.4-2.3,0.4
					c-17.1-1.1-34.2-3.3-50.9-6.7c-1-0.2-2.2-0.4-2.6-1.4c-0.3-0.7-0.2-1.6-0.2-2.3c0.4-3.7,0.8-7.3,1.2-11c0.2-1.8,0.4-3.6,0.6-5.4
					c0.1-1.2-0.1-3.3,0.9-4.2c0.5-0.4,1.3-0.5,2-0.5c3.9,0.3,7.8,0.5,11.6,0.9c1.6,0.2,3.2,0.3,4.8,0.5c0.8-1.9,1.6-3.7,2.3-5.6
					c0,0,0,0,0,0c-0.6-3-0.9-6.1,0.2-9c0.9-2.3,2.9-4.3,5.6-5c2-0.5,4-0.2,5.6,0.8c0.1,0,0.1,0,0.2-0.1c2.6-0.7,5.3,0,7,2
					c1.5,1.8,2,4.3,1.6,6.5c-0.5,2.7-2.2,5-3.9,7.2c-0.1,2-0.1,3.9-0.1,5.9c3.5,0.6,7,1.3,10.5,2c1.9,0.4,3.8,0.8,5.6,1.1
					c1,0.2,3.5,0.3,4.1,1.3c0.2,0.3,0.2,0.7,0.2,1.2C881,817.4,880.5,819,880.4,819.8z"/>
			</g>
			<g>
				<path class="st2" d="M881.1,816.1c0-0.5,0-0.9-0.2-1.2c-0.6-1-3.1-1.1-4.1-1.3c-1.9-0.4-3.8-0.8-5.6-1.1c-3.5-0.7-7-1.4-10.5-2
					c0-2,0.1-3.9,0.1-5.9c1.7-2.2,3.4-4.5,3.9-7.2c0.4-2.2-0.1-4.7-1.6-6.5c-1.7-2-4.4-2.7-7-2c-0.1,0-0.1,0-0.2,0.1
					c-1.6-1-3.7-1.3-5.6-0.8c-2.6,0.7-4.6,2.6-5.6,5c-1.2,2.9-0.9,6-0.2,9c0,0,0,0,0,0c-0.8,1.9-1.6,3.7-2.3,5.6
					c-1.6-0.2-3.2-0.4-4.8-0.5c-3.9-0.4-7.8-0.6-11.6-0.9c-0.7,0-1.5,0-2,0.5c-1,0.9-0.8,3-0.9,4.2c-0.2,1.8-0.4,3.6-0.6,5.4
					c-0.4,3.7-0.8,7.3-1.2,11c-0.1,0.8-0.2,1.6,0.2,2.3c0.4,1,1.6,1.2,2.6,1.4c16.8,3.4,33.8,5.6,50.9,6.7c0.7,0,1.7,0.1,2.3-0.4
					c0.6-0.5,0.7-1.5,0.9-2.3c0.9-5.1,1.9-10.3,2.6-15.4C880.5,819,881,817.4,881.1,816.1z M858.1,791.5c0.9,0,1.8,0.3,2.4,1
					c1.2,1.1,1.5,2.9,1.3,4.4c-0.4,2.4-2,4.5-3.6,6.5c-0.2,0.2-0.2,0.4-0.3,0.6c-0.1,0.1-0.1,0.3-0.1,0.4c-0.1,1.9-0.1,3.8-0.1,5.8
					l0,0c-1-0.2-1.9-0.3-2.9-0.5c0-1.9,0.1-3.8,0.1-5.7c1.7-2.2,3.4-4.5,3.9-7.2C859.2,795,858.9,793.1,858.1,791.5z M852.8,796.3
					c0.3-1.5,1.1-3,2.4-4c0.7,1.1,0.9,2.5,0.7,3.7c-0.3,2.1-1.6,4-3,5.8C852.6,800,852.4,798.1,852.8,796.3z M851.9,806.5
					c0,0.9,0,1.8-0.1,2.7c-0.3-0.1-0.7-0.1-1-0.1l0,0C851.2,808.1,851.6,807.3,851.9,806.5z M847.4,802.3c-0.5-2.2-0.9-4.5-0.4-6.8
					c0.4-1.7,1.4-3.5,3.1-4.4c0.8-0.4,1.8-0.6,2.7-0.5c0,0,0,0,0,0c-1,0.9-1.8,2-2.3,3.2c-1.2,2.9-0.9,6-0.2,9c0,0,0,0,0,0
					c-0.8,1.9-1.6,3.7-2.3,5.6c-0.9-0.1-1.9-0.3-2.8-0.4c0.7-1.6,1.4-3.2,2-4.9c0,0,0,0,0,0C847.4,803,847.5,802.7,847.4,802.3z
					 M835.5,831c-0.4-0.1-0.8-0.1-1.2-0.2c-0.6-0.1-1.1-0.2-1.7-0.3c-3.1-0.5-6.2-1.1-9.2-1.8c0.7-6.6,1.4-13.3,2.2-19.9
					c5.2,0.3,10.4,0.7,15.6,1.3c1,0.1,2,0.2,3,0.4c0.9,0.1,1.9,0.2,2.8,0.4c-2.9,6.9-5.8,13.8-8.7,20.6
					C837.3,831.3,836.4,831.2,835.5,831z M855.2,833.7c-0.1,0-0.3,0-0.4-0.1c-1-0.1-2-0.2-2.9-0.4c-3.5-0.4-7-0.9-10.6-1.4
					c2.9-6.9,5.8-13.8,8.7-20.7l0,0c0.6,0.1,1.3,0.2,1.9,0.3c1,0.1,1.9,0.3,2.9,0.4c1,0.2,1.9,0.3,2.9,0.5l0,0
					c-0.1,7.2-0.1,14.4,0,21.6C856.8,833.9,856,833.8,855.2,833.7z M875.2,835.4c-3.2,0.1-6.3-0.2-9.5-0.5c-1.7-0.2-3.5-0.4-5.2-0.6
					c-0.1-7.1-0.1-14.3,0-21.4c2.3,0.4,4.7,0.8,7,1.3c3.6,0.7,7.2,1.4,10.8,2.2C877.5,822.7,876.4,829.1,875.2,835.4z"/>
			</g>
		</g>
	</g>
	<g>
		<g>
			<g>
				<path class="st3" d="M1417.6,987.8c-58.6-0.9-128.8-8.4-188-15c0.5-44.3,3.9-85.8,11.5-131.7c61.1,0.2,122.2,5.3,182.4,15.4
					L1417.6,987.8z"/>
			</g>
			<g>
				<path class="st2" d="M1417.6,988.9C1417.6,988.9,1417.6,988.9,1417.6,988.9c-57.5-0.8-124.4-7.9-188.1-15.1
					c-0.6-0.1-1.1-0.6-1.1-1.2c0.5-45.9,4.2-87.8,11.5-131.9c0.1-0.6,0.6-1,1.2-1c0,0,0,0,0,0c61.1,0.2,122.5,5.3,182.6,15.4
					c0.6,0.1,1.1,0.6,1,1.2l-5.9,131.4C1418.9,988.4,1418.3,988.9,1417.6,988.9z M1230.9,971.7c62.8,7.1,128.8,14,185.5,14.9
					l5.8-129.2c-59.3-9.9-119.8-15-180-15.2C1235.1,885.4,1231.5,926.6,1230.9,971.7z"/>
			</g>
		</g>
		<g>
			<g>
				<path class="st4" d="M1411.9,978.8c-58.6-0.9-128.8-8.4-188-15c0.5-44.3,3.9-85.8,11.5-131.7c61.1,0.2,122.2,5.3,182.4,15.4
					L1411.9,978.8z"/>
			</g>
			<g>
				<path class="st2" d="M1411.9,980C1411.9,980,1411.9,980,1411.9,980c-57.5-0.8-124.4-7.9-188.1-15.1c-0.6-0.1-1.1-0.6-1.1-1.2
					c0.5-45.9,4.2-87.8,11.5-131.9c0.1-0.6,0.6-1,1.2-1c0,0,0,0,0,0c61.1,0.2,122.5,5.3,182.6,15.4c0.6,0.1,1.1,0.6,1,1.2
					l-5.9,131.4C1413.1,979.5,1412.5,980,1411.9,980z M1225.2,962.7c62.8,7.1,128.8,14,185.5,14.9l5.8-129.2
					c-59.3-9.9-119.8-15-180-15.2C1229.3,876.4,1225.7,917.7,1225.2,962.7z"/>
			</g>
		</g>
		<g>
			<g>
				<path class="st5" d="M1404.8,973c-58.6-0.9-128.8-8.4-188-15c0.5-44.3,3.9-85.8,11.5-131.7c61.1,0.2,122.2,5.3,182.4,15.4
					L1404.8,973z"/>
			</g>
			<g>
				<path class="st2" d="M1404.8,974.2C1404.8,974.2,1404.8,974.2,1404.8,974.2c-57.5-0.8-124.4-7.9-188.1-15.1
					c-0.6-0.1-1.1-0.6-1.1-1.2c0.5-45.9,4.2-87.8,11.5-131.9c0.1-0.6,0.6-1,1.2-1c0,0,0,0,0,0c61.1,0.2,122.5,5.4,182.6,15.4
					c0.6,0.1,1.1,0.6,1,1.2l-5.9,131.4C1406,973.7,1405.5,974.2,1404.8,974.2z M1218.1,956.9c62.8,7.1,128.8,14,185.5,14.9
					l5.8-129.2c-59.3-9.9-119.8-15-180-15.2C1222.3,870.7,1218.6,911.9,1218.1,956.9z"/>
			</g>
		</g>
		<g>
			<g>
				<path class="st1" d="M1359.4,830.8c-0.8,5.2-1.7,10.3-2.6,15.4c-0.1,0.7-0.2,1.7-0.9,2.3c-0.6,0.5-1.6,0.4-2.3,0.4
					c-17.1-1.1-34.2-3.3-50.9-6.7c-1-0.2-2.2-0.4-2.6-1.4c-0.3-0.7-0.2-1.6-0.2-2.3c0.4-3.7,0.8-7.3,1.2-11c0.2-1.8,0.4-3.6,0.6-5.4
					c0.1-1.2-0.1-3.3,0.9-4.2c0.5-0.4,1.3-0.5,2-0.5c3.9,0.3,7.8,0.5,11.6,0.9c1.6,0.2,3.2,0.3,4.8,0.5c0.8-1.9,1.6-3.7,2.3-5.6
					c0,0,0,0,0,0c-0.6-3-0.9-6.1,0.2-9c0.9-2.3,2.9-4.3,5.6-5c2-0.5,4-0.2,5.6,0.8c0.1,0,0.1,0,0.2-0.1c2.6-0.7,5.3,0,7,2
					c1.5,1.8,2,4.3,1.6,6.5c-0.5,2.7-2.2,5-3.9,7.2c-0.1,2-0.1,3.9-0.1,5.9c3.5,0.6,7,1.3,10.5,2c1.9,0.4,3.8,0.8,5.6,1.1
					c1,0.2,3.5,0.3,4.1,1.3c0.2,0.3,0.2,0.7,0.2,1.2C1360,828.4,1359.5,830,1359.4,830.8z"/>
			</g>
			<g>
				<path class="st2" d="M1360.1,827.1c0-0.5,0-0.9-0.2-1.2c-0.6-1-3.1-1.1-4.1-1.3c-1.9-0.4-3.8-0.8-5.6-1.1c-3.5-0.7-7-1.4-10.5-2
					c0-2,0.1-3.9,0.1-5.9c1.7-2.2,3.4-4.5,3.9-7.2c0.4-2.2-0.1-4.7-1.6-6.5c-1.7-2-4.4-2.7-7-2c-0.1,0-0.1,0-0.2,0.1
					c-1.6-1-3.7-1.3-5.6-0.8c-2.6,0.7-4.6,2.6-5.6,5c-1.2,2.9-0.9,6-0.2,9c0,0,0,0,0,0c-0.8,1.9-1.6,3.7-2.3,5.6
					c-1.6-0.2-3.2-0.4-4.8-0.5c-3.9-0.4-7.8-0.6-11.6-0.9c-0.7,0-1.5,0-2,0.5c-1,0.9-0.8,3-0.9,4.2c-0.2,1.8-0.4,3.6-0.6,5.4
					c-0.4,3.7-0.8,7.3-1.2,11c-0.1,0.8-0.2,1.6,0.2,2.3c0.4,1,1.6,1.2,2.6,1.4c16.8,3.4,33.8,5.6,50.9,6.7c0.7,0,1.7,0.1,2.3-0.4
					c0.6-0.5,0.7-1.5,0.9-2.3c0.9-5.1,1.9-10.3,2.6-15.4C1359.5,830,1360,828.4,1360.1,827.1z M1337.1,802.5c0.9,0,1.8,0.3,2.4,1
					c1.2,1.1,1.5,2.9,1.3,4.4c-0.4,2.4-2,4.5-3.6,6.5c-0.2,0.2-0.2,0.4-0.3,0.6c-0.1,0.1-0.1,0.3-0.1,0.4c-0.1,1.9-0.1,3.8-0.1,5.8
					l0,0c-1-0.2-1.9-0.3-2.9-0.5c0-1.9,0.1-3.8,0.1-5.7c1.7-2.2,3.4-4.5,3.9-7.2C1338.2,806,1337.9,804.1,1337.1,802.5z
					 M1331.8,807.3c0.3-1.5,1.1-3,2.4-4c0.7,1.1,0.9,2.5,0.7,3.7c-0.3,2.1-1.6,4-3,5.8C1331.6,811,1331.4,809.1,1331.8,807.3z
					 M1330.9,817.5c0,0.9,0,1.8-0.1,2.7c-0.3-0.1-0.7-0.1-1-0.1l0,0C1330.2,819.1,1330.6,818.3,1330.9,817.5z M1326.4,813.3
					c-0.5-2.2-0.9-4.5-0.4-6.8c0.4-1.7,1.4-3.5,3.1-4.4c0.8-0.4,1.8-0.6,2.7-0.5c0,0,0,0,0,0c-1,0.9-1.8,2-2.3,3.2
					c-1.2,2.9-0.9,6-0.2,9c0,0,0,0,0,0c-0.8,1.9-1.6,3.7-2.3,5.6c-0.9-0.1-1.9-0.3-2.8-0.4c0.7-1.6,1.4-3.2,2-4.9c0,0,0,0,0,0
					C1326.4,814,1326.5,813.7,1326.4,813.3z M1314.5,842c-0.4-0.1-0.8-0.1-1.2-0.2c-0.6-0.1-1.1-0.2-1.7-0.3
					c-3.1-0.5-6.2-1.1-9.2-1.8c0.7-6.6,1.4-13.3,2.2-19.9c5.2,0.3,10.4,0.7,15.6,1.3c1,0.1,2,0.2,3,0.4c0.9,0.1,1.9,0.2,2.8,0.4
					c-2.9,6.9-5.8,13.8-8.7,20.6C1316.3,842.3,1315.4,842.2,1314.5,842z M1334.2,844.7c-0.1,0-0.3,0-0.4-0.1c-1-0.1-2-0.2-2.9-0.4
					c-3.5-0.4-7-0.9-10.6-1.4c2.9-6.9,5.8-13.8,8.7-20.7l0,0c0.6,0.1,1.3,0.2,1.9,0.3c1,0.1,1.9,0.3,2.9,0.4c1,0.2,1.9,0.3,2.9,0.5
					l0,0c-0.1,7.2-0.1,14.4,0,21.6C1335.8,844.9,1335,844.8,1334.2,844.7z M1354.2,846.4c-3.2,0.1-6.3-0.2-9.5-0.5
					c-1.7-0.2-3.5-0.4-5.2-0.6c-0.1-7.1-0.1-14.3,0-21.4c2.3,0.4,4.7,0.8,7,1.3c3.6,0.7,7.2,1.4,10.8,2.2
					C1356.5,833.7,1355.4,840.1,1354.2,846.4z"/>
			</g>
		</g>
	</g>
	<g>
		<g>
			<g>
				<path class="st3" d="M1922.6,989.8c-58.6-0.9-128.8-8.4-188-15c0.5-44.3,3.9-85.8,11.5-131.7c61.1,0.2,122.2,5.3,182.4,15.4
					L1922.6,989.8z"/>
			</g>
			<g>
				<path class="st2" d="M1922.6,990.9C1922.6,990.9,1922.6,990.9,1922.6,990.9c-57.5-0.8-124.4-7.9-188.1-15.1
					c-0.6-0.1-1.1-0.6-1.1-1.2c0.5-45.9,4.2-87.8,11.5-131.9c0.1-0.6,0.6-1,1.2-1c0,0,0,0,0,0c61.1,0.2,122.5,5.3,182.6,15.4
					c0.6,0.1,1.1,0.6,1,1.2l-5.9,131.4C1923.9,990.4,1923.3,990.9,1922.6,990.9z M1735.9,973.7c62.8,7.1,128.8,14,185.5,14.9
					l5.8-129.2c-59.3-9.9-119.8-15-180-15.2C1740.1,887.4,1736.5,928.6,1735.9,973.7z"/>
			</g>
		</g>
		<g>
			<g>
				<path class="st4" d="M1916.9,980.8c-58.6-0.9-128.8-8.4-188-15c0.5-44.3,3.9-85.8,11.5-131.7c61.1,0.2,122.2,5.3,182.4,15.4
					L1916.9,980.8z"/>
			</g>
			<g>
				<path class="st2" d="M1916.9,982C1916.9,982,1916.9,982,1916.9,982c-57.5-0.8-124.4-7.9-188.1-15.1c-0.6-0.1-1.1-0.6-1.1-1.2
					c0.5-45.9,4.2-87.8,11.5-131.9c0.1-0.6,0.6-1,1.2-1c0,0,0,0,0,0c61.1,0.2,122.5,5.3,182.6,15.4c0.6,0.1,1.1,0.6,1,1.2
					l-5.9,131.4C1918.1,981.5,1917.5,982,1916.9,982z M1730.2,964.7c62.8,7.1,128.8,14,185.5,14.9l5.8-129.2
					c-59.3-9.9-119.8-15-180-15.2C1734.3,878.4,1730.7,919.7,1730.2,964.7z"/>
			</g>
		</g>
		<g>
			<g>
				<path class="st5" d="M1909.8,975c-58.6-0.9-128.8-8.4-188-15c0.5-44.3,3.9-85.8,11.5-131.7c61.1,0.2,122.2,5.3,182.4,15.4
					L1909.8,975z"/>
			</g>
			<g>
				<path class="st2" d="M1909.8,976.2C1909.8,976.2,1909.8,976.2,1909.8,976.2c-57.5-0.8-124.4-7.9-188.1-15.1
					c-0.6-0.1-1.1-0.6-1.1-1.2c0.5-45.9,4.2-87.8,11.5-131.9c0.1-0.6,0.6-1,1.2-1c0,0,0,0,0,0c61.1,0.2,122.5,5.4,182.6,15.4
					c0.6,0.1,1.1,0.6,1,1.2l-5.9,131.4C1911,975.7,1910.5,976.2,1909.8,976.2z M1723.1,958.9c62.8,7.1,128.8,14,185.5,14.9
					l5.8-129.2c-59.3-9.9-119.8-15-180-15.2C1727.3,872.7,1723.6,913.9,1723.1,958.9z"/>
			</g>
		</g>
		<g>
			<g>
				<path class="st1" d="M1864.4,832.8c-0.8,5.2-1.7,10.3-2.6,15.4c-0.1,0.7-0.2,1.7-0.9,2.3c-0.6,0.5-1.6,0.4-2.3,0.4
					c-17.1-1.1-34.2-3.3-50.9-6.7c-1-0.2-2.2-0.4-2.6-1.4c-0.3-0.7-0.2-1.6-0.2-2.3c0.4-3.7,0.8-7.3,1.2-11c0.2-1.8,0.4-3.6,0.6-5.4
					c0.1-1.2-0.1-3.3,0.9-4.2c0.5-0.4,1.3-0.5,2-0.5c3.9,0.3,7.8,0.5,11.6,0.9c1.6,0.2,3.2,0.3,4.8,0.5c0.8-1.9,1.6-3.7,2.3-5.6
					c0,0,0,0,0,0c-0.6-3-0.9-6.1,0.2-9c0.9-2.3,2.9-4.3,5.6-5c2-0.5,4-0.2,5.6,0.8c0.1,0,0.1,0,0.2-0.1c2.6-0.7,5.3,0,7,2
					c1.5,1.8,2,4.3,1.6,6.5c-0.5,2.7-2.2,5-3.9,7.2c-0.1,2-0.1,3.9-0.1,5.9c3.5,0.6,7,1.3,10.5,2c1.9,0.4,3.8,0.8,5.6,1.1
					c1,0.2,3.5,0.3,4.1,1.3c0.2,0.3,0.2,0.7,0.2,1.2C1865,830.4,1864.5,832,1864.4,832.8z"/>
			</g>
			<g>
				<path class="st2" d="M1865.1,829.1c0-0.5,0-0.9-0.2-1.2c-0.6-1-3.1-1.1-4.1-1.3c-1.9-0.4-3.8-0.8-5.6-1.1c-3.5-0.7-7-1.4-10.5-2
					c0-2,0.1-3.9,0.1-5.9c1.7-2.2,3.4-4.5,3.9-7.2c0.4-2.2-0.1-4.7-1.6-6.5c-1.7-2-4.4-2.7-7-2c-0.1,0-0.1,0-0.2,0.1
					c-1.6-1-3.7-1.3-5.6-0.8c-2.6,0.7-4.6,2.6-5.6,5c-1.2,2.9-0.9,6-0.2,9c0,0,0,0,0,0c-0.8,1.9-1.6,3.7-2.3,5.6
					c-1.6-0.2-3.2-0.4-4.8-0.5c-3.9-0.4-7.8-0.6-11.6-0.9c-0.7,0-1.5,0-2,0.5c-1,0.9-0.8,3-0.9,4.2c-0.2,1.8-0.4,3.6-0.6,5.4
					c-0.4,3.7-0.8,7.3-1.2,11c-0.1,0.8-0.2,1.6,0.2,2.3c0.4,1,1.6,1.2,2.6,1.4c16.8,3.4,33.8,5.6,50.9,6.7c0.7,0,1.7,0.1,2.3-0.4
					c0.6-0.5,0.7-1.5,0.9-2.3c0.9-5.1,1.9-10.3,2.6-15.4C1864.5,832,1865,830.4,1865.1,829.1z M1842.1,804.5c0.9,0,1.8,0.3,2.4,1
					c1.2,1.1,1.5,2.9,1.3,4.4c-0.4,2.4-2,4.5-3.6,6.5c-0.2,0.2-0.2,0.4-0.3,0.6c-0.1,0.1-0.1,0.3-0.1,0.4c-0.1,1.9-0.1,3.8-0.1,5.8
					l0,0c-1-0.2-1.9-0.3-2.9-0.5c0-1.9,0.1-3.8,0.1-5.7c1.7-2.2,3.4-4.5,3.9-7.2C1843.2,808,1842.9,806.1,1842.1,804.5z
					 M1836.8,809.3c0.3-1.5,1.1-3,2.4-4c0.7,1.1,0.9,2.5,0.7,3.7c-0.3,2.1-1.6,4-3,5.8C1836.6,813,1836.4,811.1,1836.8,809.3z
					 M1835.9,819.5c0,0.9,0,1.8-0.1,2.7c-0.3-0.1-0.7-0.1-1-0.1l0,0C1835.2,821.1,1835.6,820.3,1835.9,819.5z M1831.4,815.3
					c-0.5-2.2-0.9-4.5-0.4-6.8c0.4-1.7,1.4-3.5,3.1-4.4c0.8-0.4,1.8-0.6,2.7-0.5c0,0,0,0,0,0c-1,0.9-1.8,2-2.3,3.2
					c-1.2,2.9-0.9,6-0.2,9c0,0,0,0,0,0c-0.8,1.9-1.6,3.7-2.3,5.6c-0.9-0.1-1.9-0.3-2.8-0.4c0.7-1.6,1.4-3.2,2-4.9c0,0,0,0,0,0
					C1831.4,816,1831.5,815.7,1831.4,815.3z M1819.5,844c-0.4-0.1-0.8-0.1-1.2-0.2c-0.6-0.1-1.1-0.2-1.7-0.3
					c-3.1-0.5-6.2-1.1-9.2-1.8c0.7-6.6,1.4-13.3,2.2-19.9c5.2,0.3,10.4,0.7,15.6,1.3c1,0.1,2,0.2,3,0.4c0.9,0.1,1.9,0.2,2.8,0.4
					c-2.9,6.9-5.8,13.8-8.7,20.6C1821.3,844.3,1820.4,844.2,1819.5,844z M1839.2,846.7c-0.1,0-0.3,0-0.4-0.1c-1-0.1-2-0.2-2.9-0.4
					c-3.5-0.4-7-0.9-10.6-1.4c2.9-6.9,5.8-13.8,8.7-20.7l0,0c0.6,0.1,1.3,0.2,1.9,0.3c1,0.1,1.9,0.3,2.9,0.4c1,0.2,1.9,0.3,2.9,0.5
					l0,0c-0.1,7.2-0.1,14.4,0,21.6C1840.8,846.9,1840,846.8,1839.2,846.7z M1859.2,848.4c-3.2,0.1-6.3-0.2-9.5-0.5
					c-1.7-0.2-3.5-0.4-5.2-0.6c-0.1-7.1-0.1-14.3,0-21.4c2.3,0.4,4.7,0.8,7,1.3c3.6,0.7,7.2,1.4,10.8,2.2
					C1861.5,835.7,1860.4,842.1,1859.2,848.4z"/>
			</g>
		</g>
	</g>
	<g>
		<g>
			<g>
				<path class="st0" d="M1182.2,978.2l-156.1,7.2c-17.4-42.5-34.8-85-52.2-127.5c52.8-4.2,106.6-8,159.4-12.2
					C1153.5,888.2,1169.6,933.9,1182.2,978.2z"/>
			</g>
			<g>
				<path class="st1" d="M1184.5,966.3l-156.1,7.2c-17.4-42.5-34.8-85-52.2-127.5c52.8-4.2,106.6-8,159.4-12.2
					C1155.8,876.4,1171.9,922,1184.5,966.3z"/>
			</g>
			<g>
				<path class="st2" d="M1028.4,975c-0.8,0-1.6-0.4-1.8-1l-52.2-127.5c-0.2-0.4-0.1-0.9,0.2-1.3c0.3-0.4,0.8-0.6,1.4-0.7
					c26.4-2.1,53.5-4.1,79.7-6.1c26.2-2,53.3-4,79.7-6.1c0.9-0.1,1.7,0.3,2,1c18.7,39.5,35.2,84.1,49,132.7c0.1,0.4,0,0.9-0.3,1.2
					c-0.3,0.3-0.9,0.6-1.4,0.6l-156.1,7.2C1028.5,975,1028.5,975,1028.4,975z M978.7,847.3l51.1,124.7l152.3-7.1
					c-13.5-47.3-29.6-90.9-47.8-129.6c-25.9,2.1-52.5,4.1-78.3,6C1030.6,843.3,1004.4,845.2,978.7,847.3z"/>
			</g>
		</g>
		<g>
			<path class="st3" d="M1006.2,853.9c-12.3,0-12.3,14.8,0,14.8C1018.5,868.7,1018.5,853.9,1006.2,853.9z"/>
		</g>
		<g>
			<path class="st3" d="M1020.7,882.4c-12.3,0-12.3,14.8,0,14.8C1033,897.2,1033.1,882.4,1020.7,882.4z"/>
		</g>
		<g>
			<path class="st3" d="M1035.3,910.9c-12.3,0-12.3,14.8,0,14.8C1047.6,925.7,1047.6,910.9,1035.3,910.9z"/>
		</g>
		<g>
			<path class="st3" d="M1049.8,939.3c-12.3,0-12.3,14.8,0,14.8C1062.1,954.1,1062.1,939.3,1049.8,939.3z"/>
		</g>
	</g>
	<g>
		<g>
			<g>
				<path class="st0" d="M1683.2,987.2l-156.1,7.2c-17.4-42.5-34.8-85-52.2-127.5c52.8-4.2,106.6-8,159.4-12.2
					C1654.5,897.2,1670.6,942.9,1683.2,987.2z"/>
			</g>
			<g>
				<path class="st1" d="M1685.5,975.3l-156.1,7.2c-17.4-42.5-34.8-85-52.2-127.5c52.8-4.2,106.6-8,159.4-12.2
					C1656.8,885.4,1672.9,931,1685.5,975.3z"/>
			</g>
			<g>
				<path class="st2" d="M1529.4,984c-0.8,0-1.6-0.4-1.8-1l-52.2-127.5c-0.2-0.4-0.1-0.9,0.2-1.3c0.3-0.4,0.8-0.6,1.4-0.7
					c26.4-2.1,53.5-4.1,79.7-6.1c26.2-2,53.3-4,79.7-6.1c0.9-0.1,1.7,0.3,2,1c18.7,39.5,35.2,84.1,49,132.7c0.1,0.4,0,0.9-0.3,1.2
					c-0.3,0.3-0.9,0.6-1.4,0.6l-156.1,7.2C1529.5,984,1529.5,984,1529.4,984z M1479.7,856.3l51.1,124.7l152.3-7.1
					c-13.5-47.3-29.6-90.9-47.8-129.6c-25.9,2.1-52.5,4.1-78.3,6C1531.6,852.3,1505.4,854.2,1479.7,856.3z"/>
			</g>
		</g>
		<g>
			<path class="st3" d="M1507.2,862.9c-12.3,0-12.3,14.8,0,14.8C1519.5,877.7,1519.5,862.9,1507.2,862.9z"/>
		</g>
		<g>
			<path class="st3" d="M1521.7,891.4c-12.3,0-12.3,14.8,0,14.8C1534,906.2,1534.1,891.4,1521.7,891.4z"/>
		</g>
		<g>
			<path class="st3" d="M1536.3,919.9c-12.3,0-12.3,14.8,0,14.8C1548.6,934.7,1548.6,919.9,1536.3,919.9z"/>
		</g>
		<g>
			<path class="st3" d="M1550.8,948.3c-12.3,0-12.3,14.8,0,14.8C1563.1,963.1,1563.1,948.3,1550.8,948.3z"/>
		</g>
	</g>
	<g>
		<g>
			<g>
				<path class="st0" d="M689.2,968.2l-156.1,7.2c-17.4-42.5-34.8-85-52.2-127.5c52.8-4.2,106.6-8,159.4-12.2
					C660.5,878.2,676.6,923.9,689.2,968.2z"/>
			</g>
			<g>
				<path class="st1" d="M691.5,956.3l-156.1,7.2c-17.4-42.5-34.8-85-52.2-127.5c52.8-4.2,106.6-8,159.4-12.2
					C662.8,866.4,678.9,912,691.5,956.3z"/>
			</g>
			<g>
				<path class="st2" d="M535.4,965c-0.8,0-1.6-0.4-1.8-1l-52.2-127.5c-0.2-0.4-0.1-0.9,0.2-1.3c0.3-0.4,0.8-0.6,1.4-0.7
					c26.4-2.1,53.5-4.1,79.7-6.1c26.2-2,53.3-4,79.7-6.1c0.9-0.1,1.7,0.3,2,1c18.7,39.5,35.2,84.1,49,132.7c0.1,0.4,0,0.9-0.3,1.2
					c-0.3,0.3-0.9,0.6-1.4,0.6L535.5,965C535.5,965,535.5,965,535.4,965z M485.7,837.3L536.8,962l152.3-7.1
					c-13.5-47.3-29.6-90.9-47.8-129.6c-25.9,2.1-52.5,4.1-78.3,6C537.6,833.3,511.4,835.2,485.7,837.3z"/>
			</g>
		</g>
		<g>
			<path class="st3" d="M513.2,843.9c-12.3,0-12.3,14.8,0,14.8C525.5,858.7,525.5,843.9,513.2,843.9z"/>
		</g>
		<g>
			<path class="st3" d="M527.7,872.4c-12.3,0-12.3,14.8,0,14.8C540,887.2,540.1,872.4,527.7,872.4z"/>
		</g>
		<g>
			<path class="st3" d="M542.3,900.9c-12.3,0-12.3,14.8,0,14.8C554.6,915.7,554.6,900.9,542.3,900.9z"/>
		</g>
		<g>
			<path class="st3" d="M556.8,929.3c-12.3,0-12.3,14.8,0,14.8C569.1,944.1,569.1,929.3,556.8,929.3z"/>
		</g>
	</g>
	<text transform="matrix(1 0 0 1 807.1123 899.9326)" class="st6 st7">NSU</text>
	<text transform="matrix(1 0 0 1 1573.0225 920)" class="st6 st7">CoC</text>
	<text transform="matrix(1 0 0 1 1800.8311 907.8428)" class="st6 st7">DC</text>
	<text transform="matrix(1 0 0 1 1080.5732 915.5957)" class="st6 st7">VW</text>
	<text transform="matrix(1 0 0 1 1302.4268 914.1689)" class="st6 st7">CG</text>
	<text transform="matrix(0.9992 -3.872994e-02 3.872994e-02 0.9992 571.9125 908.2875)" class="st6 st7">WW</text>
	<text transform="matrix(1 0 0 1 318.6631 879.5166)" class="st6 st7">MF</text>
	<text transform="matrix(1 0 0 1 106.6182 888.5059)" class="st6 st7">DP</text>
	<g>
		<g>
			<g>
				<path class="st3" d="M218.6,716.9c-58.6-0.9-128.8-8.4-188-15c0.5-44.3,3.9-85.8,11.5-131.7c61.1,0.2,122.2,5.3,182.4,15.4
					L218.6,716.9z"/>
			</g>
			<g>
				<path class="st2" d="M218.6,718.1C218.6,718.1,218.6,718.1,218.6,718.1c-57.5-0.8-124.4-7.9-188.1-15.1
					c-0.6-0.1-1.1-0.6-1.1-1.2C29.9,656,33.6,614,40.9,570c0.1-0.6,0.6-1,1.2-1c0,0,0,0,0,0c61.1,0.2,122.5,5.3,182.6,15.4
					c0.6,0.1,1.1,0.6,1,1.2L219.9,717C219.9,717.6,219.3,718.1,218.6,718.1z M31.9,700.8c62.8,7.1,128.8,14,185.5,14.9l5.8-129.2
					c-59.3-9.9-119.8-15-180-15.2C36.1,614.6,32.5,655.8,31.9,700.8z"/>
			</g>
		</g>
		<g>
			<g>
				<path class="st4" d="M212.9,708c-58.6-0.9-128.8-8.4-188-15c0.5-44.3,3.9-85.8,11.5-131.7c61.1,0.2,122.2,5.3,182.4,15.4
					L212.9,708z"/>
			</g>
			<g>
				<path class="st2" d="M212.9,709.1C212.9,709.1,212.9,709.1,212.9,709.1c-57.5-0.8-124.4-7.9-188.1-15.1
					c-0.6-0.1-1.1-0.6-1.1-1.2c0.5-45.9,4.2-87.8,11.5-131.9c0.1-0.6,0.6-1,1.2-1c0,0,0,0,0,0c61.1,0.2,122.5,5.3,182.6,15.4
					c0.6,0.1,1.1,0.6,1,1.2L214.1,708C214.1,708.6,213.5,709.1,212.9,709.1z M26.2,691.9c62.8,7.1,128.8,14,185.5,14.9l5.8-129.2
					c-59.3-9.9-119.8-15-180-15.2C30.3,605.6,26.7,646.8,26.2,691.9z"/>
			</g>
		</g>
		<g>
			<g>
				<path class="st5" d="M205.8,702.2c-58.6-0.9-128.8-8.4-188-15c0.5-44.3,3.9-85.8,11.5-131.7c61.1,0.2,122.2,5.3,182.4,15.4
					L205.8,702.2z"/>
			</g>
			<g>
				<path class="st2" d="M205.8,703.4C205.8,703.4,205.8,703.4,205.8,703.4c-57.5-0.8-124.4-7.9-188.1-15.1
					c-0.6-0.1-1.1-0.6-1.1-1.2c0.5-45.9,4.2-87.8,11.5-131.9c0.1-0.6,0.6-1,1.2-1c0,0,0,0,0,0c61.1,0.2,122.5,5.4,182.6,15.4
					c0.6,0.1,1.1,0.6,1,1.2l-5.9,131.4C207,702.9,206.5,703.4,205.8,703.4z M19.1,686.1c62.8,7.1,128.8,14,185.5,14.9l5.8-129.2
					c-59.3-9.9-119.8-15-180-15.2C23.3,599.8,19.6,641,19.1,686.1z"/>
			</g>
		</g>
		<g>
			<g>
				<path class="st1" d="M160.4,560c-0.8,5.2-1.7,10.3-2.6,15.4c-0.1,0.7-0.2,1.7-0.9,2.3c-0.6,0.5-1.6,0.4-2.3,0.4
					c-17.1-1.1-34.2-3.3-50.9-6.7c-1-0.2-2.2-0.4-2.6-1.4c-0.3-0.7-0.2-1.6-0.2-2.3c0.4-3.7,0.8-7.3,1.2-11c0.2-1.8,0.4-3.6,0.6-5.4
					c0.1-1.2-0.1-3.3,0.9-4.2c0.5-0.4,1.3-0.5,2-0.5c3.9,0.3,7.8,0.5,11.6,0.9c1.6,0.2,3.2,0.3,4.8,0.5c0.8-1.9,1.6-3.7,2.3-5.6
					c0,0,0,0,0,0c-0.6-3-0.9-6.1,0.2-9c0.9-2.3,2.9-4.3,5.6-5c2-0.5,4-0.2,5.6,0.8c0.1,0,0.1,0,0.2-0.1c2.6-0.7,5.3,0,7,2
					c1.5,1.8,2,4.3,1.6,6.5c-0.5,2.7-2.2,5-3.9,7.2c-0.1,2-0.1,3.9-0.1,5.9c3.5,0.6,7,1.3,10.5,2c1.9,0.4,3.8,0.8,5.6,1.1
					c1,0.2,3.5,0.3,4.1,1.3c0.2,0.3,0.2,0.7,0.2,1.2C161,557.5,160.5,559.2,160.4,560z"/>
			</g>
			<g>
				<path class="st2" d="M161.1,556.3c0-0.5,0-0.9-0.2-1.2c-0.6-1-3.1-1.1-4.1-1.3c-1.9-0.4-3.8-0.8-5.6-1.1c-3.5-0.7-7-1.4-10.5-2
					c0-2,0.1-3.9,0.1-5.9c1.7-2.2,3.4-4.5,3.9-7.2c0.4-2.2-0.1-4.7-1.6-6.5c-1.7-2-4.4-2.7-7-2c-0.1,0-0.1,0-0.2,0.1
					c-1.6-1-3.7-1.3-5.6-0.8c-2.6,0.7-4.6,2.6-5.6,5c-1.2,2.9-0.9,6-0.2,9c0,0,0,0,0,0c-0.8,1.9-1.6,3.7-2.3,5.6
					c-1.6-0.2-3.2-0.4-4.8-0.5c-3.9-0.4-7.8-0.6-11.6-0.9c-0.7,0-1.5,0-2,0.5c-1,0.9-0.8,3-0.9,4.2c-0.2,1.8-0.4,3.6-0.6,5.4
					c-0.4,3.7-0.8,7.3-1.2,11c-0.1,0.8-0.2,1.6,0.2,2.3c0.4,1,1.6,1.2,2.6,1.4c16.8,3.4,33.8,5.6,50.9,6.7c0.7,0,1.7,0.1,2.3-0.4
					c0.6-0.5,0.7-1.5,0.9-2.3c0.9-5.1,1.9-10.3,2.6-15.4C160.5,559.2,161,557.5,161.1,556.3z M138.1,531.6c0.9,0,1.8,0.3,2.4,1
					c1.2,1.1,1.5,2.9,1.3,4.4c-0.4,2.4-2,4.5-3.6,6.5c-0.2,0.2-0.2,0.4-0.3,0.6c-0.1,0.1-0.1,0.3-0.1,0.4c-0.1,1.9-0.1,3.8-0.1,5.8
					l0,0c-1-0.2-1.9-0.3-2.9-0.5c0-1.9,0.1-3.8,0.1-5.7c1.7-2.2,3.4-4.5,3.9-7.2C139.2,535.2,138.9,533.2,138.1,531.6z M132.8,536.5
					c0.3-1.5,1.1-3,2.4-4c0.7,1.1,0.9,2.5,0.7,3.7c-0.3,2.1-1.6,4-3,5.8C132.6,540.1,132.4,538.3,132.8,536.5z M131.9,546.6
					c0,0.9,0,1.8-0.1,2.7c-0.3-0.1-0.7-0.1-1-0.1l0,0C131.2,548.3,131.6,547.5,131.9,546.6z M127.4,542.5c-0.5-2.2-0.9-4.5-0.4-6.8
					c0.4-1.7,1.4-3.5,3.1-4.4c0.8-0.4,1.8-0.6,2.7-0.5c0,0,0,0,0,0c-1,0.9-1.8,2-2.3,3.2c-1.2,2.9-0.9,6-0.2,9c0,0,0,0,0,0
					c-0.8,1.9-1.6,3.7-2.3,5.6c-0.9-0.1-1.9-0.3-2.8-0.4c0.7-1.6,1.4-3.2,2-4.9c0,0,0,0,0,0C127.4,543.2,127.5,542.8,127.4,542.5z
					 M115.5,571.2c-0.4-0.1-0.8-0.1-1.2-0.2c-0.6-0.1-1.1-0.2-1.7-0.3c-3.1-0.5-6.2-1.1-9.2-1.8c0.7-6.6,1.4-13.3,2.2-19.9
					c5.2,0.3,10.4,0.7,15.6,1.3c1,0.1,2,0.2,3,0.4c0.9,0.1,1.9,0.2,2.8,0.4c-2.9,6.9-5.8,13.8-8.7,20.6
					C117.3,571.5,116.4,571.3,115.5,571.2z M135.2,573.9c-0.1,0-0.3,0-0.4-0.1c-1-0.1-2-0.2-2.9-0.4c-3.5-0.4-7-0.9-10.6-1.4
					c2.9-6.9,5.8-13.8,8.7-20.7l0,0c0.6,0.1,1.3,0.2,1.9,0.3c1,0.1,1.9,0.3,2.9,0.4c1,0.2,1.9,0.3,2.9,0.5l0,0
					c-0.1,7.2-0.1,14.4,0,21.6C136.8,574.1,136,574,135.2,573.9z M155.2,575.5c-3.2,0.1-6.3-0.2-9.5-0.5c-1.7-0.2-3.5-0.4-5.2-0.6
					c-0.1-7.1-0.1-14.3,0-21.4c2.3,0.4,4.7,0.8,7,1.3c3.6,0.7,7.2,1.4,10.8,2.2C157.5,562.9,156.4,569.2,155.2,575.5z"/>
			</g>
		</g>
	</g>
	<g>
		<g>
			<g>
				<path class="st3" d="M1872.6,665.9c-58.6-0.9-128.8-8.4-188-15c0.5-44.3,3.9-85.8,11.5-131.7c61.1,0.2,122.2,5.3,182.4,15.4
					L1872.6,665.9z"/>
			</g>
			<g>
				<path class="st2" d="M1872.6,667.1C1872.6,667.1,1872.6,667.1,1872.6,667.1c-57.5-0.8-124.4-7.9-188.1-15.1
					c-0.6-0.1-1.1-0.6-1.1-1.2c0.5-45.9,4.2-87.8,11.5-131.9c0.1-0.6,0.6-1,1.2-1c0,0,0,0,0,0c61.1,0.2,122.5,5.3,182.6,15.4
					c0.6,0.1,1.1,0.6,1,1.2l-5.9,131.4C1873.9,666.6,1873.3,667.1,1872.6,667.1z M1685.9,649.8c62.8,7.1,128.8,14,185.5,14.9
					l5.8-129.2c-59.3-9.9-119.8-15-180-15.2C1690.1,563.6,1686.5,604.8,1685.9,649.8z"/>
			</g>
		</g>
		<g>
			<g>
				<path class="st4" d="M1866.9,657c-58.6-0.9-128.8-8.4-188-15c0.5-44.3,3.9-85.8,11.5-131.7c61.1,0.2,122.2,5.3,182.4,15.4
					L1866.9,657z"/>
			</g>
			<g>
				<path class="st2" d="M1866.9,658.1C1866.9,658.1,1866.9,658.1,1866.9,658.1c-57.5-0.8-124.4-7.9-188.1-15.1
					c-0.6-0.1-1.1-0.6-1.1-1.2c0.5-45.9,4.2-87.8,11.5-131.9c0.1-0.6,0.6-1,1.2-1c0,0,0,0,0,0c61.1,0.2,122.5,5.3,182.6,15.4
					c0.6,0.1,1.1,0.6,1,1.2l-5.9,131.4C1868.1,657.6,1867.5,658.1,1866.9,658.1z M1680.2,640.9c62.8,7.1,128.8,14,185.5,14.9
					l5.8-129.2c-59.3-9.9-119.8-15-180-15.2C1684.3,554.6,1680.7,595.8,1680.2,640.9z"/>
			</g>
		</g>
		<g>
			<g>
				<path class="st5" d="M1859.8,651.2c-58.6-0.9-128.8-8.4-188-15c0.5-44.3,3.9-85.8,11.5-131.7c61.1,0.2,122.2,5.3,182.4,15.4
					L1859.8,651.2z"/>
			</g>
			<g>
				<path class="st2" d="M1859.8,652.4C1859.8,652.4,1859.8,652.4,1859.8,652.4c-57.5-0.8-124.4-7.9-188.1-15.1
					c-0.6-0.1-1.1-0.6-1.1-1.2c0.5-45.9,4.2-87.8,11.5-131.9c0.1-0.6,0.6-1,1.2-1c0,0,0,0,0,0c61.1,0.2,122.5,5.4,182.6,15.4
					c0.6,0.1,1.1,0.6,1,1.2l-5.9,131.4C1861,651.9,1860.5,652.4,1859.8,652.4z M1673.1,635.1c62.8,7.1,128.8,14,185.5,14.9
					l5.8-129.2c-59.3-9.9-119.8-15-180-15.2C1677.3,548.8,1673.6,590,1673.1,635.1z"/>
			</g>
		</g>
		<g>
			<g>
				<path class="st1" d="M1814.4,509c-0.8,5.2-1.7,10.3-2.6,15.4c-0.1,0.7-0.2,1.7-0.9,2.3c-0.6,0.5-1.6,0.4-2.3,0.4
					c-17.1-1.1-34.2-3.3-50.9-6.7c-1-0.2-2.2-0.4-2.6-1.4c-0.3-0.7-0.2-1.6-0.2-2.3c0.4-3.7,0.8-7.3,1.2-11c0.2-1.8,0.4-3.6,0.6-5.4
					c0.1-1.2-0.1-3.3,0.9-4.2c0.5-0.4,1.3-0.5,2-0.5c3.9,0.3,7.8,0.5,11.6,0.9c1.6,0.2,3.2,0.3,4.8,0.5c0.8-1.9,1.6-3.7,2.3-5.6
					c0,0,0,0,0,0c-0.6-3-0.9-6.1,0.2-9c0.9-2.3,2.9-4.3,5.6-5c2-0.5,4-0.2,5.6,0.8c0.1,0,0.1,0,0.2-0.1c2.6-0.7,5.3,0,7,2
					c1.5,1.8,2,4.3,1.6,6.5c-0.5,2.7-2.2,5-3.9,7.2c-0.1,2-0.1,3.9-0.1,5.9c3.5,0.6,7,1.3,10.5,2c1.9,0.4,3.8,0.8,5.6,1.1
					c1,0.2,3.5,0.3,4.1,1.3c0.2,0.3,0.2,0.7,0.2,1.2C1815,506.5,1814.5,508.2,1814.4,509z"/>
			</g>
			<g>
				<path class="st2" d="M1815.1,505.3c0-0.5,0-0.9-0.2-1.2c-0.6-1-3.1-1.1-4.1-1.3c-1.9-0.4-3.8-0.8-5.6-1.1c-3.5-0.7-7-1.4-10.5-2
					c0-2,0.1-3.9,0.1-5.9c1.7-2.2,3.4-4.5,3.9-7.2c0.4-2.2-0.1-4.7-1.6-6.5c-1.7-2-4.4-2.7-7-2c-0.1,0-0.1,0-0.2,0.1
					c-1.6-1-3.7-1.3-5.6-0.8c-2.6,0.7-4.6,2.6-5.6,5c-1.2,2.9-0.9,6-0.2,9c0,0,0,0,0,0c-0.8,1.9-1.6,3.7-2.3,5.6
					c-1.6-0.2-3.2-0.4-4.8-0.5c-3.9-0.4-7.8-0.6-11.6-0.9c-0.7,0-1.5,0-2,0.5c-1,0.9-0.8,3-0.9,4.2c-0.2,1.8-0.4,3.6-0.6,5.4
					c-0.4,3.7-0.8,7.3-1.2,11c-0.1,0.8-0.2,1.6,0.2,2.3c0.4,1,1.6,1.2,2.6,1.4c16.8,3.4,33.8,5.6,50.9,6.7c0.7,0,1.7,0.1,2.3-0.4
					c0.6-0.5,0.7-1.5,0.9-2.3c0.9-5.1,1.9-10.3,2.6-15.4C1814.5,508.2,1815,506.5,1815.1,505.3z M1792.1,480.6c0.9,0,1.8,0.3,2.4,1
					c1.2,1.1,1.5,2.9,1.3,4.4c-0.4,2.4-2,4.5-3.6,6.5c-0.2,0.2-0.2,0.4-0.3,0.6c-0.1,0.1-0.1,0.3-0.1,0.4c-0.1,1.9-0.1,3.8-0.1,5.8
					l0,0c-1-0.2-1.9-0.3-2.9-0.5c0-1.9,0.1-3.8,0.1-5.7c1.7-2.2,3.4-4.5,3.9-7.2C1793.2,484.2,1792.9,482.2,1792.1,480.6z
					 M1786.8,485.5c0.3-1.5,1.1-3,2.4-4c0.7,1.1,0.9,2.5,0.7,3.7c-0.3,2.1-1.6,4-3,5.8C1786.6,489.1,1786.4,487.3,1786.8,485.5z
					 M1785.9,495.6c0,0.9,0,1.8-0.1,2.7c-0.3-0.1-0.7-0.1-1-0.1l0,0C1785.2,497.3,1785.6,496.5,1785.9,495.6z M1781.4,491.5
					c-0.5-2.2-0.9-4.5-0.4-6.8c0.4-1.7,1.4-3.5,3.1-4.4c0.8-0.4,1.8-0.6,2.7-0.5c0,0,0,0,0,0c-1,0.9-1.8,2-2.3,3.2
					c-1.2,2.9-0.9,6-0.2,9c0,0,0,0,0,0c-0.8,1.9-1.6,3.7-2.3,5.6c-0.9-0.1-1.9-0.3-2.8-0.4c0.7-1.6,1.4-3.2,2-4.9c0,0,0,0,0,0
					C1781.4,492.2,1781.5,491.8,1781.4,491.5z M1769.5,520.2c-0.4-0.1-0.8-0.1-1.2-0.2c-0.6-0.1-1.1-0.2-1.7-0.3
					c-3.1-0.5-6.2-1.1-9.2-1.8c0.7-6.6,1.4-13.3,2.2-19.9c5.2,0.3,10.4,0.7,15.6,1.3c1,0.1,2,0.2,3,0.4c0.9,0.1,1.9,0.2,2.8,0.4
					c-2.9,6.9-5.8,13.8-8.7,20.6C1771.3,520.5,1770.4,520.3,1769.5,520.2z M1789.2,522.9c-0.1,0-0.3,0-0.4-0.1c-1-0.1-2-0.2-2.9-0.4
					c-3.5-0.4-7-0.9-10.6-1.4c2.9-6.9,5.8-13.8,8.7-20.7l0,0c0.6,0.1,1.3,0.2,1.9,0.3c1,0.1,1.9,0.3,2.9,0.4c1,0.2,1.9,0.3,2.9,0.5
					l0,0c-0.1,7.2-0.1,14.4,0,21.6C1790.8,523.1,1790,523,1789.2,522.9z M1809.2,524.5c-3.2,0.1-6.3-0.2-9.5-0.5
					c-1.7-0.2-3.5-0.4-5.2-0.6c-0.1-7.1-0.1-14.3,0-21.4c2.3,0.4,4.7,0.8,7,1.3c3.6,0.7,7.2,1.4,10.8,2.2
					C1811.5,511.9,1810.4,518.2,1809.2,524.5z"/>
			</g>
		</g>
	</g>
	<text transform="matrix(1 0 0 1 114.2588 641)" class="st6 st7">SP</text>
	<text transform="matrix(1 0 0 1 1762.9434 587.0225)" class="st6 st7">EP</text>
</g>
<g id="Default_Text_Box">
	<g>
		<g>
			<g>
				<path class="st0" d="M1126.7,632.6l-285.2,2.8c0.4-86.9,0.9-173.7,1.3-260.5c94.8,0.5,188.2,1,283,1.6
					C1126.9,462.4,1125.7,546.5,1126.7,632.6z"/>
			</g>
			<g>
				<path class="st4" d="M1118.3,618.8l-285.2,2.8c0.4-86.9,0.9-173.7,1.3-260.5c94.8,0.5,188.2,1,283,1.6
					C1118.5,448.6,1117.2,532.7,1118.3,618.8z"/>
			</g>
			<g>
				<path class="st2" d="M1118.3,620.3L833.1,623c-0.5,0-0.9-0.1-1.2-0.4c-0.3-0.3-0.5-0.7-0.5-1l1.3-260.5c0-0.4,0.2-0.8,0.5-1
					c0.3-0.3,0.8-0.4,1.2-0.4c52.1,0.3,103.9,0.6,155.6,0.9c42.4,0.2,84.8,0.5,127.4,0.7c0.9,0,1.7,0.6,1.7,1.4
					c0.5,43,0.5,86.3,0.4,128.1c-0.1,41.8-0.1,85.1,0.4,128.1c0,0.4-0.2,0.8-0.5,1C1119.2,620.1,1118.7,620.3,1118.3,620.3z
					 M834.8,620.1l281.7-2.7c-0.5-42.5-0.4-85.3-0.4-126.7c0.1-41.4,0.1-84.1-0.4-126.7c-42.1-0.2-83.9-0.5-125.7-0.7
					c-51.2-0.3-102.3-0.6-153.9-0.8L834.8,620.1z"/>
			</g>
		</g>
		<g>
			<g>
				<path class="st1" d="M924.5,351.9c2.9,23.1,5.9,45.3,8.8,68.4c-13.7-5.6-26.1-9.4-39.8-15c-13.4,7.3-25.7,14-39.1,21.3
					c0-25.9,0.1-51.8,0.1-77.7C878.5,351.8,900.4,353.2,924.5,351.9z"/>
			</g>
			<g>
				<path class="st1" d="M1030.3,419.3c-13.7-5.6-26.1-9.4-39.8-15c-13.4,7.3-25.7,14-39.1,21.3c0-25.9,0.1-51.8,0.1-77.7
					c23.9,2.9,45.8,4.2,69.9,2.9C1024.4,374,1027.4,396.3,1030.3,419.3z"/>
			</g>
			<g>
				<path class="st2" d="M854.5,428.1c-0.3,0-0.6-0.1-0.8-0.2c-0.6-0.3-0.9-0.7-0.9-1.3l0.1-77.7c0-0.4,0.2-0.8,0.6-1.1
					c0.4-0.3,0.9-0.4,1.4-0.3c26.4,3.2,47.9,4.1,69.6,2.9c0.9,0,1.7,0.5,1.8,1.3c1.5,11.6,3,23.1,4.4,34.3
					c1.4,11.1,2.9,22.6,4.4,34.1c0.1,0.5-0.2,1-0.7,1.4c-0.5,0.3-1.2,0.4-1.8,0.1c-6.8-2.8-13.4-5.2-19.8-7.5
					c-6.2-2.2-12.5-4.5-19.1-7.2c-6.2,3.4-12.1,6.6-18,9.8c-6.7,3.6-13.3,7.3-20.3,11.1C855.1,428,854.8,428.1,854.5,428.1z
					 M856.3,350.6l-0.1,73.3c6-3.3,11.8-6.4,17.6-9.6c6.2-3.4,12.4-6.7,18.8-10.3c0.5-0.3,1.2-0.3,1.7-0.1
					c6.8,2.8,13.4,5.2,19.8,7.5c5.6,2,11.3,4,17.1,6.4c-1.4-10.6-2.7-21.2-4.1-31.5c-1.4-10.7-2.8-21.8-4.2-32.9
					C902.2,354.4,881.4,353.6,856.3,350.6z"/>
			</g>
			<g>
				<path class="st2" d="M951.4,427.1c-0.3,0-0.6-0.1-0.8-0.2c-0.6-0.3-0.9-0.7-0.9-1.3l0.1-77.7c0-0.4,0.2-0.8,0.6-1.1
					c0.4-0.3,0.9-0.4,1.4-0.3c26.4,3.2,47.9,4.1,69.6,2.9c0.9,0,1.7,0.5,1.8,1.3c1.5,11.6,3,23.1,4.4,34.3
					c1.4,11.1,2.9,22.6,4.4,34.1c0.1,0.5-0.2,1-0.7,1.4c-0.5,0.3-1.2,0.4-1.8,0.1c-6.8-2.8-13.4-5.2-19.8-7.5
					c-6.2-2.2-12.5-4.5-19.1-7.2c-6.2,3.4-12.1,6.6-18,9.8c-6.7,3.6-13.3,7.3-20.3,11.1C952.1,427,951.7,427.1,951.4,427.1z
					 M953.3,349.7l-0.1,73.3c6-3.3,11.8-6.4,17.6-9.6c6.2-3.4,12.4-6.7,18.8-10.3c0.5-0.3,1.2-0.3,1.7-0.1
					c6.8,2.8,13.4,5.2,19.8,7.5c5.6,2,11.3,4,17.1,6.4c-1.4-10.6-2.7-21.2-4.1-31.5c-1.4-10.7-2.8-21.8-4.2-32.9
					C999.1,353.5,978.4,352.6,953.3,349.7z"/>
			</g>
		</g>
		<g>
			<path class="st2" d="M1085.7,459.7l-230.3,2.2c-0.2,0-0.3-0.1-0.3-0.3s0.2-0.3,0.3-0.3l230.3-2.2c0.2,0,0.3,0.1,0.3,0.3
				C1086,459.5,1085.9,459.7,1085.7,459.7z"/>
		</g>
		<g>
			<path class="st2" d="M1086,492.4l-230.3,2.2c-0.2,0-0.3-0.1-0.3-0.3c0-0.2,0.2-0.3,0.3-0.3l230.3-2.2c0.2,0,0.3,0.1,0.3,0.3
				C1086.4,492.3,1086.2,492.4,1086,492.4z"/>
		</g>
		<g>
			<path class="st2" d="M1086.3,525.2L856,527.4c-0.2,0-0.3-0.1-0.3-0.3c0-0.2,0.2-0.3,0.3-0.3l230.3-2.2c0.2,0,0.3,0.1,0.3,0.3
				S1086.5,525.2,1086.3,525.2z"/>
		</g>
		<g>
			<path class="st2" d="M1086.6,558l-230.3,2.2c-0.2,0-0.3-0.1-0.3-0.3c0-0.2,0.2-0.3,0.3-0.3l230.3-2.2c0.2,0,0.3,0.1,0.3,0.3
				C1087,557.8,1086.8,558,1086.6,558z"/>
		</g>
		<g>
			<path class="st2" d="M1087,590.7l-230.3,2.2c-0.2,0-0.3-0.1-0.3-0.3c0-0.2,0.2-0.3,0.3-0.3l230.3-2.2c0.2,0,0.3,0.1,0.3,0.3
				C1087.3,590.6,1087.2,590.7,1087,590.7z"/>
		</g>
	</g>
</g>
<g id="ep" class="st8">
	<text transform="matrix(1 0 0 1 907.3032 520.4043)" class="st9 st6 st7">Expulsion</text>
</g>
<g id="sp" class="st8">
	<text transform="matrix(1 0 0 1 893.5957 519.876)" class="st9 st6 st7">Suspension</text>
</g>
<g id="dp" class="st8">
	<text transform="matrix(1 0 0 1 883.3931 520.2588)" class="st9"><tspan x="0" y="0" class="st6 st7">Disciplinary</tspan><tspan x="0" y="38.4" class="st6 st7">Probation</tspan></text>
</g>
<g id="mf" class="st8">
	<text transform="matrix(1 0 0 1 905.2134 516.3486)" class="st9"><tspan x="0" y="0" class="st6 st7">Monetary</tspan><tspan x="0" y="38.4" class="st6 st7">Fine</tspan></text>
</g>
<g id="ww" class="st8">
	<text transform="matrix(1 0 0 1 893.8877 516.2588)" class="st9"><tspan x="0" y="0" class="st6 st7">Written</tspan><tspan x="0" y="38.4" class="st6 st7">Warning</tspan></text>
</g>
<g id="cg" class="st8">
	<text transform="matrix(1 0 0 1 883.7979 486.876)" class="st9"><tspan x="0" y="0" class="st6 st7">Calling</tspan><tspan x="0" y="35" class="st6 st7">of</tspan><tspan x="0" y="70" class="st6 st7">Guardian</tspan></text>
</g>
<g id="vw" class="st8">
	<text transform="matrix(1 0 0 1 871.854 520.6406)" class="st9"><tspan x="0" y="0" class="st6 st7">Verbal</tspan><tspan x="0" y="35" class="st6 st7">Warning</tspan></text>
</g>
<g id="dc" class="st8">
	<text transform="matrix(1 0 0 1 868.9438 519.6406)" class="st9"><tspan x="0" y="0" class="st6 st7">Disciplinary</tspan><tspan x="0" y="35" class="st6 st7">Committee</tspan></text>
</g>
<g id="CoC" class="st8">
	<text transform="matrix(1 0 0 1 869.3257 520.4043)" class="st9"><tspan x="0" y="0" class="st6 st7">Code</tspan><tspan x="0" y="35" class="st6 st7">of Conduct</tspan></text>
</g>
<g id="NSU" class="st8">
	<text transform="matrix(1 0 0 1 858.7979 493.6406)" class="st9"><tspan x="0" y="0" class="st6 st7">North</tspan><tspan x="0" y="31" class="st6 st7">South</tspan><tspan x="0" y="62" class="st6 st7">University</tspan></text>
</g>
</svg>
