<?xml version="1.0" encoding="utf-8"?>
<!-- Generator: Adobe Illustrator 26.2.1, SVG Export Plug-In . SVG Version: 6.00 Build 0)  -->
<svg version="1.1" xmlns="http://www.w3.org/2000/svg" xmlns:xlink="http://www.w3.org/1999/xlink" x="0px" y="0px"
	 viewBox="0 0 1920 1080" style="enable-background:new 0 0 1920 1080;" xml:space="preserve">
<style type="text/css">
	.st0{fill:url(#SVGID_1_);}
	.st1{clip-path:url(#SVGID_00000014595594056765128260000017502139563350223490_);}
	.st2{fill:url(#SVGID_00000167376057034591922010000001531464070166644414_);}
	.st3{fill:url(#SVGID_00000121277785349332589590000015286576012349668249_);}
	.st4{fill:url(#SVGID_00000054232364813259539270000001291956354000771203_);}
	.st5{fill:url(#SVGID_00000050639898497210032360000006841642113272831416_);}
	.st6{fill:url(#SVGID_00000140718295283023417000000011272684559041474691_);}
	.st7{fill:url(#SVGID_00000016777608153040767530000001830287151357775750_);}
	.st8{fill:url(#SVGID_00000005987947993062135920000011722320958682768010_);}
	.st9{fill:url(#SVGID_00000072243980951312044470000001397230240342521269_);}
	.st10{fill:url(#SVGID_00000039109420419600228230000007224671863478344101_);}
	.st11{fill:url(#SVGID_00000000936091525146876240000002825240705361360037_);}
	.st12{fill:url(#SVGID_00000128466044659632001550000017042595290413719424_);}
	.st13{fill:url(#SVGID_00000115510318741610123840000003868623653091440537_);}
	.st14{fill:url(#SVGID_00000099627575712185177600000003418251925159177100_);}
	.st15{fill:url(#SVGID_00000101814960547945810300000004287547310422377137_);}
	.st16{fill:url(#SVGID_00000044145696462673309420000004947239193732471438_);}
	.st17{fill:url(#SVGID_00000080190918831947464480000006168087704743238288_);}
	.st18{fill:url(#SVGID_00000044154766913195956620000010652287925698746283_);}
	.st19{fill:url(#SVGID_00000113338462806545044440000001279640253818250154_);}
	.st20{fill:url(#SVGID_00000075852268717781217890000005268761459289903013_);}
	.st21{fill:url(#SVGID_00000025422179644276727800000004845238742386876819_);}
	.st22{fill:url(#SVGID_00000167392689038701733990000006629500498453364637_);}
	.st23{fill:url(#SVGID_00000003810288044675723900000012757770089517711256_);}
	.st24{fill:url(#SVGID_00000154401521361080221610000015726713762354180786_);}
	.st25{fill:url(#SVGID_00000005258004220511472180000014463500210397312953_);}
	.st26{fill:url(#SVGID_00000046323701827005801590000007017697609039376268_);}
	.st27{fill:url(#SVGID_00000181795716617538790780000012600022619701901237_);}
	.st28{fill:url(#SVGID_00000119802462483959710100000008937271162825095553_);}
	.st29{fill:url(#SVGID_00000056389644046491296620000009753483602044039870_);}
	.st30{fill:url(#SVGID_00000161632740999001942100000011994167810656918442_);}
	.st31{fill:url(#SVGID_00000011746043356231411270000005046646035390426794_);}
	.st32{fill:url(#SVGID_00000029046070966455710490000004842519273316028324_);}
	.st33{fill:url(#SVGID_00000152253881404514009470000004685750880424533695_);}
	.st34{fill:url(#SVGID_00000108293562422889038870000010337255627741332639_);}
	.st35{fill:url(#SVGID_00000142875888068123764280000001655085528830180774_);}
	.st36{fill:url(#SVGID_00000168819885644192935550000010905291176526319756_);}
	.st37{fill:url(#SVGID_00000162344263385825066480000004412408079707655068_);}
	.st38{fill:url(#SVGID_00000177471358924760564760000003035820230956656308_);}
	.st39{fill:none;}
	.st40{fill:#FFFFFF;stroke:#000000;stroke-width:5;stroke-miterlimit:10;}
	.st41{font-family:'MyriadPro-Regular';}
	.st42{font-size:22px;}
</style>
<g id="background">
	<linearGradient id="SVGID_1_" gradientUnits="userSpaceOnUse" x1="838.4225" y1="1228.1307" x2="1081.5775" y2="-148.1307">
		<stop  offset="3.197300e-04" style="stop-color:#F5F5F5"/>
		<stop  offset="0.9385" style="stop-color:#E2F4FF"/>
	</linearGradient>
	<rect x="0" y="0" class="st0" width="1920" height="1080"/>
	<g>
		<defs>
			<rect id="SVGID_00000011001495673532166710000009119015431465994917_" x="0" y="0" width="1920" height="1080"/>
		</defs>
		<clipPath id="SVGID_00000152241334838362864760000001035553938286315190_">
			<use xlink:href="#SVGID_00000011001495673532166710000009119015431465994917_"  style="overflow:visible;"/>
		</clipPath>
		<g style="clip-path:url(#SVGID_00000152241334838362864760000001035553938286315190_);">
			<g>
				<g>
					<g>
						
							<linearGradient id="SVGID_00000009582695095680637160000012187047372250283178_" gradientUnits="userSpaceOnUse" x1="-20.2062" y1="943.9177" x2="1904.9501" y2="943.9177">
							<stop  offset="6.142960e-02" style="stop-color:#8FE1FF"/>
							<stop  offset="1" style="stop-color:#CEEDFD;stop-opacity:0"/>
						</linearGradient>
						<path style="fill:url(#SVGID_00000009582695095680637160000012187047372250283178_);" d="M1903.8,1018.2
							c-0.4-0.3-35.9-30.9-107-63.8c-65.5-30.4-175.5-69.2-327.3-81c-166.8-13.1-294.9,29.9-418.7,71.5
							c-93.3,31.3-189.8,63.7-300.4,70.4c-186.8,11.2-339.2-21.7-450.5-45.8c-41.1-8.9-76.5-16.5-105.8-20.3
							C91.2,936.2-18.7,960.5-19.8,960.7l-0.4-1.3c1.1-0.2,111.3-24.6,214.5-11.5c29.4,3.7,64.9,11.4,106,20.3
							c111.2,24,263.5,57,450,45.7c110.4-6.7,206.7-39,299.9-70.3c124-41.6,252.2-84.7,419.5-71.6c152.1,11.9,262.3,50.7,328,81.2
							c71.2,33.1,106.9,63.7,107.3,64L1903.8,1018.2z"/>
					</g>
					<g>
						
							<linearGradient id="SVGID_00000065043132529518499460000018126071711197789357_" gradientUnits="userSpaceOnUse" x1="-16.7555" y1="975.0411" x2="1908.8766" y2="975.0411">
							<stop  offset="6.142960e-02" style="stop-color:#8FE1FF"/>
							<stop  offset="1" style="stop-color:#CEEDFD;stop-opacity:0"/>
						</linearGradient>
						<path style="fill:url(#SVGID_00000065043132529518499460000018126071711197789357_);" d="M1907.8,1046.5
							c-6.2-4.9-156.3-119.4-437.1-139.7c-45.1-3.1-90-2.2-133.4,2.8c-94.4,10.8-181,36.6-264.8,61.7
							c-101.7,30.4-206.9,61.8-323.2,64.3c-37.8,0.8-76.8-0.6-119.4-4.4c-111.9-9.8-211.8-31.2-292.1-48.3
							c-54.5-11.6-101.5-21.7-140.4-25.8C100.9,946.6-5,967.6-16.1,971.8l-0.7-1.2c11.2-4.2,117.6-25.3,214.2-14.9
							c39,4.2,86.1,14.2,140.6,25.9c80.2,17.1,180,38.4,291.8,48.2c42.5,3.7,81.5,5.2,119.2,4.4c116.1-2.5,216.5-32.5,322.8-64.2
							c83.9-25,170.6-50.9,265.1-61.7c43.5-5,88.5-5.9,133.8-2.8c281.4,20.3,431.8,135.2,438.1,140.1L1907.8,1046.5z"/>
					</g>
					<g>
						
							<linearGradient id="SVGID_00000000211145941518236490000007908525162062985104_" gradientUnits="userSpaceOnUse" x1="-13.1851" y1="1006.0714" x2="1912.8344" y2="1006.0714">
							<stop  offset="6.142960e-02" style="stop-color:#8FE1FF"/>
							<stop  offset="1" style="stop-color:#CEEDFD;stop-opacity:0"/>
						</linearGradient>
						<path style="fill:url(#SVGID_00000000211145941518236490000007908525162062985104_);" d="M1911.8,1074.7
							c-1.5-1.2-161.7-117-440-134.6c-45.1-2.8-90-1.3-133.4,4.4c-82,10.9-161.3,32-237.9,52.4c-108.5,28.9-220.6,58.7-339.6,58.7
							c-4.3,0-8.6,0-13-0.1c-36.4-0.7-74.9-4-117.7-10.2c-87.7-12.7-168.8-30.4-240.3-46.1c-73.4-16.1-136.8-30-189.4-34.7
							c-98.5-8.8-198.9,12.9-213,18.2l-0.7-1.2c14.2-5.3,115-27.1,213.9-18.3c52.7,4.7,116.2,18.6,189.7,34.7
							c71.5,15.6,152.5,33.4,240.1,46.1c42.7,6.2,81.1,9.5,117.5,10.2c123.5,2.3,239.7-28.6,352.1-58.6
							c76.7-20.4,156-41.5,238.1-52.5c43.5-5.8,88.5-7.3,133.7-4.5c278.8,17.6,439.5,133.7,441,134.9L1911.8,1074.7z"/>
					</g>
					<g>
						
							<linearGradient id="SVGID_00000026140140029721660340000002287110127026177441_" gradientUnits="userSpaceOnUse" x1="-9.6157" y1="1036.314" x2="1916.7937" y2="1036.314">
							<stop  offset="6.142960e-02" style="stop-color:#8FE1FF"/>
							<stop  offset="1" style="stop-color:#CEEDFD;stop-opacity:0"/>
						</linearGradient>
						<path style="fill:url(#SVGID_00000026140140029721660340000002287110127026177441_);" d="M1915.7,1103
							c-5.6-4.4-50.7-33-128.7-62.8c-68.6-26.3-178.8-59.1-314.1-66.6c-45.6-2.5-90.4-0.4-133.3,6.1
							c-67.7,10.4-136.1,26.7-202.3,42.6c-126.3,30.2-257,61.5-390.6,53.5c-36.5-2.2-73.3-7.3-116-16.1
							c-57.9-11.9-113-25-166.2-37.6c-100.8-23.9-187.9-44.5-260.7-49.8C112,965.8,14.4,985.1-9,993.9l-0.7-1.2
							c24.3-9.1,120.2-28.4,213.5-21.6c72.9,5.2,160.1,25.9,261,49.8c53.2,12.6,108.3,25.7,166.2,37.6c42.5,8.8,79.3,13.9,115.7,16
							c133.3,7.9,263.8-23.3,390-53.5c66.2-15.8,134.8-32.2,202.5-42.6c43-6.6,88-8.7,133.7-6.1c135.6,7.5,246,40.4,314.7,66.7
							c78.2,29.9,123.5,58.7,129.2,63.1L1915.7,1103z"/>
					</g>
					<g>
						
							<linearGradient id="SVGID_00000047047668365199635220000009837949429177666463_" gradientUnits="userSpaceOnUse" x1="-6.0453" y1="1054.5879" x2="1920.7515" y2="1054.5879">
							<stop  offset="6.142960e-02" style="stop-color:#8FE1FF"/>
							<stop  offset="1" style="stop-color:#CEEDFD;stop-opacity:0"/>
						</linearGradient>
						<path style="fill:url(#SVGID_00000047047668365199635220000009837949429177666463_);" d="M1919.7,1131.2
							c-8.4-6.5-58.2-34.6-136-62.4c-69.5-24.8-179.6-55.7-309.7-61.8c-46.3-2.2-91.1,0.5-133.2,7.8
							c-50.5,8.8-101.1,19.9-154.6,31.6c-144.5,31.7-293.9,64.4-440.7,49.6c-36.3-3.7-73.7-10.8-114.3-21.9
							c-19.1-5.2-38-10.4-56.8-15.6c-135.4-37.4-263.4-72.7-367.3-78.4c-90.1-5-182.8,13.8-212.3,24.9l-0.7-1.2
							c35.7-13.4,129.7-29.6,213.1-25c104.2,5.8,232.2,41.1,367.7,78.5c18.8,5.2,37.7,10.4,56.8,15.6c40.5,11,77.8,18.2,114,21.8
							c146.6,14.8,295.8-17.9,440.1-49.6c53.6-11.7,104.1-22.8,154.7-31.6c42.3-7.4,87.2-10,133.7-7.8
							c130.3,6.1,240.6,37,310.2,61.9c78,27.9,128,56.1,136.5,62.7L1919.7,1131.2z"/>
					</g>
					<g>
						
							<linearGradient id="SVGID_00000162345708953609351500000000691629614570807956_" gradientUnits="userSpaceOnUse" x1="-2.475" y1="1072.7606" x2="1924.7095" y2="1072.7606">
							<stop  offset="6.142960e-02" style="stop-color:#8FE1FF"/>
							<stop  offset="1" style="stop-color:#CEEDFD;stop-opacity:0"/>
						</linearGradient>
						<path style="fill:url(#SVGID_00000162345708953609351500000000691629614570807956_);" d="M1923.6,1159.5
							c-10.8-8.4-65.6-36.1-143.3-62c-70.3-23.4-180.3-52.3-305.3-57.1c-47.1-1.8-91.9,1.4-133.2,9.5c-28.6,5.6-57.6,11.7-88.3,18.1
							c-161.1,33.7-343.6,72-509.5,48.2c-37.1-5.3-73.9-14.4-112.6-27.7c-142.8-49.3-292.8-95.6-421.4-100.6
							c-80.6-3.1-169.4,12.2-212,28.3l-0.7-1.2c42.8-16.1,131.9-31.5,212.7-28.4c128.8,5,278.9,51.4,421.9,100.7
							c38.6,13.3,75.3,22.4,112.2,27.7c165.5,23.7,347.9-14.5,508.8-48.2c30.7-6.4,59.7-12.5,88.3-18.1
							c41.4-8.1,86.3-11.3,133.6-9.5c125.2,4.8,235.4,33.7,305.8,57.2c77.9,26,132.9,53.8,143.8,62.2L1923.6,1159.5z"/>
					</g>
					<g>
						
							<linearGradient id="SVGID_00000111872471836835214300000001238362493273741462_" gradientUnits="userSpaceOnUse" x1="1.0954" y1="1090.8723" x2="1928.6672" y2="1090.8723">
							<stop  offset="6.142960e-02" style="stop-color:#8FE1FF"/>
							<stop  offset="1" style="stop-color:#CEEDFD;stop-opacity:0"/>
						</linearGradient>
						<path style="fill:url(#SVGID_00000111872471836835214300000001238362493273741462_);" d="M1927.6,1187.7
							c-11.1-8.6-66.6-35.5-150.6-61.5c-71-22-180.9-48.9-300.9-52.4c-48.1-1.4-92.9,2.4-133.1,11.2
							c-122,26.8-291.5,63.9-452.5,63.9c-50.7,0-100.5-3.7-147.7-12.5c-37.6-7-74.9-18.3-110.9-33.6
							c-161.4-68.5-302.2-104.6-418.6-107.2c-83.2-1.9-166.3,14.5-211.7,31.6l-0.7-1.2c45.6-17.2,128.9-33.6,212.3-31.7
							c116.6,2.6,257.6,38.8,419.2,107.4c35.8,15.2,73,26.5,110.5,33.5c197,36.8,439.2-16.3,599.5-51.4
							c40.4-8.8,85.3-12.6,133.6-11.2c120.2,3.5,230.2,30.5,301.4,52.5c84.2,26.1,140,53.1,151.1,61.8L1927.6,1187.7z"/>
					</g>
					<g>
						
							<linearGradient id="SVGID_00000130630763214731437340000009337470376724695434_" gradientUnits="userSpaceOnUse" x1="4.6648" y1="1108.918" x2="1932.6266" y2="1108.918">
							<stop  offset="6.142960e-02" style="stop-color:#8FE1FF"/>
							<stop  offset="1" style="stop-color:#CEEDFD;stop-opacity:0"/>
						</linearGradient>
						<path style="fill:url(#SVGID_00000130630763214731437340000009337470376724695434_);" d="M1931.5,1215.9
							c-12.9-10-71.9-36.3-157.9-61c-71.7-20.6-181.3-45.5-296.4-47.8c-49.3-1-94,3.4-133,12.9c-101.2,24.6-202.7,42-293.3,50.1
							c-119.9,10.7-224,6.2-309.3-13.6c-38.9-9-75.7-22.3-109.2-39.4c-100.4-51.4-253.9-112.9-415.8-113.9
							c-71.9-0.4-152.8,13-211.3,35l-0.7-1.2c58.7-22.1,139.9-35.6,212-35.1c162.2,1,316.1,62.6,416.6,114
							c33.4,17.1,70,30.3,108.8,39.3c85.2,19.7,189,24.3,308.7,13.6c90.6-8.1,191.9-25.4,293.1-50c39.2-9.5,84.1-13.9,133.5-12.9
							c115.4,2.2,225.1,27.3,296.9,47.8c87.1,25,145.1,50.9,158.4,61.3L1931.5,1215.9z"/>
					</g>
					<g>
						
							<linearGradient id="SVGID_00000124126637859513805950000009673153378000363963_" gradientUnits="userSpaceOnUse" x1="8.2352" y1="1126.8838" x2="1936.5844" y2="1126.8838">
							<stop  offset="6.142960e-02" style="stop-color:#8FE1FF"/>
							<stop  offset="1" style="stop-color:#CEEDFD;stop-opacity:0"/>
						</linearGradient>
						<path style="fill:url(#SVGID_00000124126637859513805950000009673153378000363963_);" d="M1935.5,1244.2
							c-33.2-25.8-258-101.7-457.2-103.6c-50.6-0.5-95.3,4.4-133,14.6c-89.3,24-193.4,40.5-293.3,46.5
							c-119.6,7.1-227.5-1.5-311.8-24.9c-40.3-11.2-76.5-26.4-107.4-45.3c-127.7-77.8-271.6-120.5-406.1-120.5c-2.3,0-4.6,0-6.9,0
							c-72.5,0.8-147.4,14.4-211,38.3l-0.7-1.2c63.8-24,138.9-37.7,211.6-38.5c136.7-1.5,283.8,41.4,413.9,120.7
							c30.8,18.8,66.8,34,107,45.1c178.1,49.4,431.8,24.8,604.1-21.6c37.8-10.2,82.7-15.1,133.5-14.6
							c199.6,1.9,424.9,78,458.2,103.9L1935.5,1244.2z"/>
					</g>
					<g>
						
							<linearGradient id="SVGID_00000008112798126144403320000010442041561710508179_" gradientUnits="userSpaceOnUse" x1="11.8054" y1="1144.7522" x2="1940.5422" y2="1144.7522">
							<stop  offset="6.142960e-02" style="stop-color:#8FE1FF"/>
							<stop  offset="1" style="stop-color:#CEEDFD;stop-opacity:0"/>
						</linearGradient>
						<path style="fill:url(#SVGID_00000008112798126144403320000010442041561710508179_);" d="M1939.5,1272.4
							c-23.2-18-126.3-52.6-242.8-75.2c-84.3-16.4-241.9-39-350.1-7c-100.1,29.6-240.3,46.1-365.7,43
							c-71.3-1.8-136.3-9.5-193.2-22.8c-63.5-14.9-115.4-36.7-154.4-64.6c-85-61.1-184.2-102.1-286.9-118.8
							c-54.6-8.9-109.9-10.8-164.3-5.7c-57.6,5.3-114.6,18.5-169.6,39.2l-0.7-1.2c55.1-20.7,112.3-34,170.1-39.3
							c54.6-5.1,110.1-3.1,164.8,5.8c102.9,16.7,202.4,57.9,287.6,119.1c38.8,27.9,90.5,49.5,153.7,64.4
							c56.8,13.3,121.7,21,192.8,22.8c125.2,3.1,265.1-13.3,365.1-42.9c108.6-32.1,266.5-9.4,351,7
							c116.8,22.7,220.2,57.4,243.5,75.5L1939.5,1272.4z"/>
					</g>
				</g>
				
					<linearGradient id="SVGID_00000155844434126987405950000001478266901187665047_" gradientUnits="userSpaceOnUse" x1="950.0472" y1="1285.9286" x2="950.0472" y2="977.9469">
					<stop  offset="6.104040e-02" style="stop-color:#004ABE"/>
					<stop  offset="1" style="stop-color:#CEEDFD;stop-opacity:0"/>
				</linearGradient>
				<path style="fill:url(#SVGID_00000155844434126987405950000001478266901187665047_);" d="M1914,1227.9
					c-218.7-170.3-622.7-58.5-872.7-48.7c-388.1,15.3-667.4-309.5-1055.1-163.5v270.2H1914V1227.9z"/>
				
					<linearGradient id="SVGID_00000078030867255278865460000003859791582971972784_" gradientUnits="userSpaceOnUse" x1="669.3208" y1="893.1252" x2="1920.791" y2="893.1252">
					<stop  offset="0" style="stop-color:#CEEDFD;stop-opacity:0"/>
					<stop  offset="0.9385" style="stop-color:#0090D8"/>
				</linearGradient>
				<path style="fill:url(#SVGID_00000078030867255278865460000003859791582971972784_);" d="M1920.8,1178.3
					c-14.6-6.5-29.7-12.3-45.1-17.3c-16.5-5.4-33.4-10-50.4-13.9c-18.8-4.3-37.8-7.9-57-10.8c-21.2-3.3-42.6-5.8-64-7.8
					c-23.8-2.2-47.8-3.8-71.7-4.9c-26.7-1.3-53.4-1.9-80.1-2.2c-29.7-0.3-59.5-0.2-89.2,0.3c-33,0.6-66,1.5-99,2.8
					c-36.5,1.4-73,3.1-109.4,5c-40.2,2.1-80.4,4.6-120.5,7.2c-37,2.4-74.1,3.9-111.2,4c-30.7,0.1-61.4-0.8-92-3
					c-25-1.8-49.8-4.5-74.4-8.5c-20-3.2-39.9-7.3-59.3-12.6c-15.4-4.2-30.6-9.1-45.2-15.1c-11.6-4.7-22.9-10.1-33.5-16.3
					c-8.1-4.8-15.9-10-23-15.9c-5.3-4.4-10.3-9.1-14.7-14.1c-3-3.4-5.7-7-8-10.8c-1.2-2-2.3-4-3.1-6.1c-0.1-0.3-0.2-0.5-0.3-0.8
					c1.4,1.7,2.9,3.3,4.5,4.8c4.4,4.4,9.3,8.4,14.3,12.2c8,6,16.6,11.4,25.6,16.3c12.2,6.6,25.1,12.3,38.5,17.1
					c16.9,6.1,34.5,10.8,52.3,14.4c22.4,4.5,45.3,7.2,68.3,8.5c28.2,1.6,56.6,1.2,84.8-0.8c34.9-2.4,69.5-7.1,103.7-13.4
					c41.6-7.7,82.6-17.7,122.9-29.2c41.8-12,82.9-25.6,123.1-40.9c36.6-13.9,72.4-29.2,107.5-45.6c33.4-15.7,66-32.4,97.9-50.1
					c30.1-16.8,59.6-34.4,88.3-52.8c26.5-17,52.4-34.7,77.7-53c23.1-16.7,45.7-34,67.8-51.7c19.4-15.6,38.3-31.5,56.8-47.9
					c15.7-13.9,31.1-28.1,46.2-42.5c11.9-11.4,23.5-23,34.9-34.8c8-8.3,15.8-16.6,23.4-25.1c4-4.4,7.9-8.9,11.8-13.4
					c0.5-0.6,0.9-1.1,1.4-1.7L1920.8,1178.3z"/>
				
					<linearGradient id="SVGID_00000168837373105252807920000004902498714095636630_" gradientUnits="userSpaceOnUse" x1="-13.8872" y1="932.0299" x2="1268.9269" y2="932.0299">
					<stop  offset="6.142960e-02" style="stop-color:#8FE1FF"/>
					<stop  offset="1" style="stop-color:#CEEDFD;stop-opacity:0"/>
				</linearGradient>
				<path style="fill:url(#SVGID_00000168837373105252807920000004902498714095636630_);" d="M-13.9,797.5
					c226.2-22.5,454.3,39.6,640.1,145.8c208.1,118.9,443.4,127.6,642.7-12.2c-99.2,142.9-415.4,176.2-575.4,100.7
					c-84.1-39.7-150.2-102.2-233.3-143.7c-143.4-71.6-310.4-86.3-474.1-77.4V797.5z"/>
			</g>
			<g>
				
					<linearGradient id="SVGID_00000062171707582951823930000015747864415967698859_" gradientUnits="userSpaceOnUse" x1="960" y1="183.3265" x2="960" y2="-53.5541">
					<stop  offset="0" style="stop-color:#CEEDFD;stop-opacity:0"/>
					<stop  offset="0.9389" style="stop-color:#0087D2"/>
				</linearGradient>
				<path style="fill:url(#SVGID_00000062171707582951823930000015747864415967698859_);" d="M-3.7,124.1
					c216-75.6,473.1-92,701-54.6c275,45.2,540.7,141.9,826.6,105.9c126-15.8,281.9-56.3,399.7,7.9V-53.6H-3.7V124.1z"/>
				
					<linearGradient id="SVGID_00000070809382243445763220000016589112955954441912_" gradientUnits="userSpaceOnUse" x1="-15.1621" y1="210.3634" x2="1327.9692" y2="210.3634">
					<stop  offset="6.142960e-02" style="stop-color:#8FE1FF"/>
					<stop  offset="1" style="stop-color:#CEEDFD;stop-opacity:0"/>
				</linearGradient>
				<path style="fill:url(#SVGID_00000070809382243445763220000016589112955954441912_);" d="M1327.4,183.1
					c-34.9,10.8-72.8,17.5-110.9,21.8c-40.8,4.6-82.4,6.5-123.8,5.9c-39.1-0.5-78.3-3.1-116.4-8.8c-47.5-7.1-93.9-16.7-139.9-27
					c-46.1-10.2-91.8-21.1-138.2-30.7c-46-9.5-92.8-17.6-140.3-23.6c-47.5-6.1-95.6-10.2-143.9-12.2c-48.2-1.9-96.6-1.7-144.7,1
					c-47.2,2.7-94.2,7.6-139.9,15.5c-42,7.2-83.4,17.3-119.5,33c-8.7,3.8-17.1,7.9-25,12.3c55.3-6,111.4-8.9,167.6-8.9
					c56.1,0.1,112.2,3.2,167.5,9.1c54.2,5.8,108.4,13,160.1,25c45.9,10.6,89.3,24.9,132.1,39.7c42.7,14.8,84.9,30.2,128.9,43.5
					c43,13,87.8,24,134.7,29.7c42.6,5.2,86.4,6.3,129.5,3.6c43.3-2.7,86.1-9.1,126.6-19.1c40.3-10,78.4-23.6,112-40.8
					c15.9-8.1,30.1-17.2,44.1-26.5c13-8.7,27-17.7,35.4-28.5C1326.6,192.8,1329.2,187.8,1327.4,183.1z"/>
				<g>
					<g>
						
							<linearGradient id="SVGID_00000020390500054141738500000003882847671180892816_" gradientUnits="userSpaceOnUse" x1="444.1606" y1="225.8535" x2="2039.1191" y2="225.8535">
							<stop  offset="0" style="stop-color:#CEEDFD;stop-opacity:0"/>
							<stop  offset="0.9382" style="stop-color:#00AEFF"/>
						</linearGradient>
						<path style="fill:url(#SVGID_00000020390500054141738500000003882847671180892816_);" d="M2038.8,480.3
							c-182.3-35.9-356.2-106.8-502.8-205c-20.2-13.6-40.3-27.9-59.7-41.7c-37.3-26.6-75.9-54.1-117.2-77.4
							c-73.3-41.3-144.1-61.8-210.4-61c-38.2,0.5-76.1,8.1-112.8,15.4c-16.3,3.3-33.2,6.7-49.9,9.4c-95.4,15.5-196.7,9.8-292.9-16.4
							C596.9,77.4,510.8,32,444.2-27.6l1.2-0.9c66.5,59.5,152.3,104.7,248.3,130.8c95.9,26.1,196.9,31.8,292.1,16.3
							c16.7-2.7,33.5-6.1,49.9-9.4c36.8-7.4,74.8-15,113.1-15.4c66.7-0.8,137.8,19.8,211.3,61.2c41.3,23.3,80,50.8,117.3,77.5
							c19.4,13.8,39.5,28.1,59.6,41.7c146.4,98.1,320.1,169,502.2,204.8L2038.8,480.3z"/>
					</g>
					<g>
						
							<linearGradient id="SVGID_00000085226237728338311250000012453976499469286808_" gradientUnits="userSpaceOnUse" x1="445.7178" y1="210.3634" x2="2039.6005" y2="210.3634">
							<stop  offset="0" style="stop-color:#CEEDFD;stop-opacity:0"/>
							<stop  offset="0.9382" style="stop-color:#00AEFF"/>
						</linearGradient>
						<path style="fill:url(#SVGID_00000085226237728338311250000012453976499469286808_);" d="M2039.2,459.1
							c-182.6-38.1-356.4-107.3-502.6-200c-20.2-12.8-40.4-26.4-59.8-39.5c-23.4-15.7-47.5-32-72-47.1c-16.5-10.2-31.7-19-46.5-26.9
							c-73.6-39.3-144.3-59-210.3-58.4c-37.7,0.3-75.2,7.3-111.5,14c-16.6,3.1-33.7,6.2-50.7,8.8c-90.8,13.4-187,7.9-278-15.9
							C659.3,81.3,612,63.4,567,40.7c-44.9-22.6-85.7-48.9-121.3-78.1l1.1-1C482.3-9.2,523,17,567.8,39.5
							c44.9,22.6,92.1,40.5,140.4,53.1c90.8,23.8,186.7,29.3,277.3,15.9c16.9-2.5,34-5.7,50.6-8.7c36.4-6.7,74-13.7,111.8-14
							c66.3-0.6,137.3,19.2,211.2,58.6c14.8,7.9,30.1,16.7,46.6,27c24.5,15.1,48.7,31.4,72.1,47.2c19.4,13.1,39.6,26.6,59.8,39.5
							c146,92.6,319.6,161.7,502,199.8L2039.2,459.1z"/>
					</g>
					<g>
						
							<linearGradient id="SVGID_00000141441210907371151860000001457207780787967396_" gradientUnits="userSpaceOnUse" x1="447.2778" y1="194.8724" x2="2040.0802" y2="194.8724">
							<stop  offset="0" style="stop-color:#CEEDFD;stop-opacity:0"/>
							<stop  offset="0.9382" style="stop-color:#00AEFF"/>
						</linearGradient>
						<path style="fill:url(#SVGID_00000141441210907371151860000001457207780787967396_);" d="M2039.7,437.9
							c-183.3-40.5-357.1-107.9-502.4-195c-20.2-12.1-40.4-24.9-59.8-37.2c-23.8-15.1-48.3-30.7-73.2-45.1
							c-16.6-9.7-31.9-18-46.8-25.6c-73.9-37.4-144.6-56.2-210.2-55.9c-37.3,0.2-74.3,6.5-110.1,12.6c-16.8,2.9-34.3,5.8-51.5,8.1
							c-90.8,12.1-186.3,5.5-276.3-18.9c-46.7-12.7-93.8-30.7-139.9-53.6c-44.1-21.9-86.3-47.6-122.1-74.4l1.1-1
							c35.7,26.7,77.9,52.4,121.9,74.2c46,22.8,92.9,40.8,139.5,53.5c89.7,24.4,185,30.9,275.6,18.9c17.2-2.3,34.6-5.3,51.4-8.1
							c35.9-6.1,73-12.5,110.5-12.6c65.9-0.4,136.9,18.5,211.1,56.1c14.9,7.6,30.3,15.9,46.9,25.6c24.9,14.5,49.5,30.1,73.3,45.2
							c19.5,12.3,39.6,25.1,59.8,37.2c145.2,87,318.7,154.3,501.9,194.8L2039.7,437.9z"/>
					</g>
					<g>
						
							<linearGradient id="SVGID_00000142168144642288009350000013539240306024708013_" gradientUnits="userSpaceOnUse" x1="448.8403" y1="179.381" x2="2040.5598" y2="179.381">
							<stop  offset="0" style="stop-color:#CEEDFD;stop-opacity:0"/>
							<stop  offset="0.9382" style="stop-color:#00AEFF"/>
						</linearGradient>
						<path style="fill:url(#SVGID_00000142168144642288009350000013539240306024708013_);" d="M2040.1,416.6
							c-184.7-43.1-358.3-108.8-502.2-190c-20.2-11.4-40.3-23.4-59.7-35c-24.2-14.4-49.2-29.3-74.5-43.2
							c-16.7-9.2-32.2-17.1-47.1-24.2c-74.2-35.4-144.9-53.3-210.1-53.3c-36.7,0-73.3,5.7-108.7,11.2c-17.2,2.7-34.9,5.4-52.4,7.5
							c-90.8,10.7-185.7,3.1-274.6-21.9c-44.9-12.6-91.6-30.8-139-54c-43.7-21.4-86.2-45.8-122.9-70.7l1-1.1
							C486.6-33,529-8.6,572.6,12.7c47.3,23.1,93.9,41.2,138.7,53.8c88.6,25,183.3,32.5,273.8,21.8c17.5-2.1,35.2-4.8,52.4-7.5
							c35.4-5.5,72.1-11.2,109-11.2c0.1,0,0.3,0,0.4,0c65.3,0,136.2,18,210.5,53.5c15,7.2,30.5,15.1,47.2,24.3
							c25.3,13.9,50.3,28.8,74.6,43.2c19.4,11.6,39.5,23.6,59.7,35c143.7,81.1,317.2,146.7,501.7,189.8L2040.1,416.6z"/>
					</g>
					<g>
						
							<linearGradient id="SVGID_00000127751947337307384090000006215829960990336678_" gradientUnits="userSpaceOnUse" x1="450.4067" y1="163.89" x2="2041.0396" y2="163.89">
							<stop  offset="0" style="stop-color:#CEEDFD;stop-opacity:0"/>
							<stop  offset="0.9382" style="stop-color:#00AEFF"/>
						</linearGradient>
						<path style="fill:url(#SVGID_00000127751947337307384090000006215829960990336678_);" d="M2040.6,395.4
							c-189.6-46.7-358.5-108.9-502-185c-20.1-10.7-40.1-21.9-59.5-32.7c-24.7-13.8-50.2-28-75.9-41.3
							c-16.8-8.7-32.4-16.2-47.4-22.9c-74.6-33.5-145.2-50.5-210-50.7c-0.3,0-0.7,0-1,0c-35.8,0-71.5,5-106,9.9
							c-17.5,2.5-35.6,5-53.5,6.9C894.3,89,800,80.4,712.3,54.7c-43.4-12.7-88.5-30.4-138.1-54.3c-42.6-20.5-85.4-43.7-123.8-67
							l0.9-1.1C489.7-44.4,532.5-21.2,575-0.7c49.5,23.9,94.6,41.6,137.8,54.2C800.3,79,894.4,87.6,984.9,78.3
							c17.8-1.8,35.9-4.4,53.4-6.8c34.9-4.9,71-10,107.3-9.9c65.1,0.2,136,17.3,210.8,50.9c15.1,6.8,30.7,14.3,47.5,22.9
							c25.7,13.2,51.3,27.5,76,41.3c19.4,10.8,39.4,22,59.5,32.7c143.3,76,312.1,138.1,501.6,184.8L2040.6,395.4z"/>
					</g>
					<g>
						
							<linearGradient id="SVGID_00000083785783421278340530000001569587993809974151_" gradientUnits="userSpaceOnUse" x1="451.9763" y1="148.399" x2="2041.5192" y2="148.399">
							<stop  offset="0" style="stop-color:#CEEDFD;stop-opacity:0"/>
							<stop  offset="0.9382" style="stop-color:#00AEFF"/>
						</linearGradient>
						<path style="fill:url(#SVGID_00000083785783421278340530000001569587993809974151_);" d="M2041.1,374.2
							c-193.5-50.2-362.3-110.7-501.8-179.9c-19.9-9.9-39.8-20.3-59.1-30.3c-25.2-13.2-51.3-26.8-77.6-39.4
							c-17-8.1-32.6-15.2-47.8-21.6c-74.9-31.5-145.5-47.7-209.9-48.1c-35.6-0.2-71,4.2-105.3,8.5c-17.9,2.2-36.5,4.6-54.7,6.2
							c-90.8,8-184.5-1.7-271.1-27.9c-41.4-12.5-85-29.9-137.2-54.7C537.1-31.8,495.1-53.1,452-76.3l0.9-1.1
							c43.1,23.2,85,44.5,124.5,63.3c52.1,24.7,95.6,42.1,137,54.6c86.3,26.1,179.8,35.8,270.4,27.8c18.2-1.6,36.8-3.9,54.7-6.2
							c34.3-4.3,69.9-8.8,105.5-8.5c64.7,0.4,135.5,16.6,210.6,48.3c15.2,6.4,30.8,13.5,47.8,21.6c26.3,12.6,52.4,26.2,77.6,39.4
							c19.2,10,39.1,20.4,59.1,30.3c139.4,69.2,308.1,129.7,501.5,179.8L2041.1,374.2z"/>
					</g>
					<g>
						
							<linearGradient id="SVGID_00000157286196244134204180000007513929521216835460_" gradientUnits="userSpaceOnUse" x1="453.5498" y1="132.9085" x2="2041.9989" y2="132.9085">
							<stop  offset="0" style="stop-color:#CEEDFD;stop-opacity:0"/>
							<stop  offset="0.9382" style="stop-color:#00AEFF"/>
						</linearGradient>
						<path style="fill:url(#SVGID_00000157286196244134204180000007513929521216835460_);" d="M2041.5,353
							c-205.5-56-364.9-111.6-501.6-174.9c-19.7-9.1-39.4-18.7-58.4-27.9c-25.9-12.6-52.6-25.5-79.5-37.5
							c-17.1-7.6-32.8-14.3-48.1-20.2c-76.3-30-144.9-44.9-209.8-45.5c-34.9-0.4-69.7,3.5-103.3,7.2c-18.4,2-37.4,4.1-56.2,5.5
							c-90.8,6.6-183.9-4.1-269.4-30.9c-49.6-15.5-96.8-36.5-136.3-55c-25.3-11.8-50.2-23.8-74.4-35.3c-18-8.6-35-16.7-51-24.3
							l0.8-1.2c16,7.6,33,15.7,51,24.3c24.2,11.6,49.1,23.5,74.4,35.3c39.5,18.5,86.6,39.5,136.1,55C801.1,54.1,894,64.7,984.6,58.2
							c18.7-1.4,37.7-3.5,56.1-5.5c33.7-3.7,68.5-7.5,103.5-7.2c65.2,0.7,134,15.6,210.5,45.7c15.3,6,31,12.6,48.1,20.3
							c26.9,12,53.6,25,79.5,37.6c19,9.2,38.7,18.8,58.4,27.9c136.6,63.3,295.9,118.9,501.3,174.8L2041.5,353z"/>
					</g>
					<g>
						
							<linearGradient id="SVGID_00000031207453312716163020000007285896418420211630_" gradientUnits="userSpaceOnUse" x1="455.1263" y1="117.4181" x2="2042.4801" y2="117.4181">
							<stop  offset="0" style="stop-color:#CEEDFD;stop-opacity:0"/>
							<stop  offset="0.9382" style="stop-color:#00AEFF"/>
						</linearGradient>
						<path style="fill:url(#SVGID_00000031207453312716163020000007285896418420211630_);" d="M2042,331.8
							c-157.5-45-340.2-100.4-501.4-169.9c-19.3-8.4-38.7-17.1-57.4-25.5c-26.6-12-54.1-24.3-81.7-35.8c-17.2-7.1-33-13.3-48.4-18.9
							c-76.6-28-145.2-42.1-209.7-43c-34.1-0.5-68.2,2.8-101.1,5.9c-18.9,1.8-38.5,3.7-57.8,4.8c-90.8,5.2-183.3-6.5-267.6-33.9
							c-47-15.2-92.7-35.7-135.5-55.4c-47.2-21.7-89.2-40.9-126.3-55.9l0.7-1.2c37.1,15,79.1,34.2,126.3,56
							c42.7,19.7,88.4,40.1,135.3,55.3c84.1,27.3,176.4,39,266.9,33.8c19.2-1.1,38.8-3,57.7-4.8c33-3.1,67.1-6.4,101.3-5.9
							c64.8,0.9,133.6,15,210.4,43.1c15.4,5.6,31.2,11.8,48.4,18.9c27.6,11.4,55.1,23.8,81.7,35.8c18.7,8.4,38.1,17.1,57.4,25.5
							c161.1,69.5,343.8,124.8,501.2,169.8L2042,331.8z"/>
					</g>
					<g>
						
							<linearGradient id="SVGID_00000091732813824644006590000014388323814170702485_" gradientUnits="userSpaceOnUse" x1="456.7051" y1="101.9284" x2="2042.9598" y2="101.9284">
							<stop  offset="0" style="stop-color:#CEEDFD;stop-opacity:0"/>
							<stop  offset="0.9382" style="stop-color:#00AEFF"/>
						</linearGradient>
						<path style="fill:url(#SVGID_00000091732813824644006590000014388323814170702485_);" d="M2042.4,310.6l-28.5-8.5
							c-159.2-47.6-323.8-96.9-472.7-156.4c-18.8-7.5-37.7-15.4-55.9-22.9c-27.5-11.4-55.9-23.2-84.3-34.1
							c-17.3-6.6-33.2-12.4-48.7-17.6c-76.9-26-145.5-39.2-209.7-40.4c-33.3-0.6-66.5,2.1-98.7,4.6c-19.6,1.6-39.8,3.2-59.7,4
							c-90.8,3.8-182.7-9-265.9-36.9c-44.2-14.8-87.1-34.3-128.6-53.1l-5.9-2.7c-34.1-15.5-84.5-37.7-127.1-52.2l0.6-1.3
							c42.7,14.6,93.1,36.8,127.3,52.3l5.9,2.7C632-33,674.8-13.5,719,1.3C801.9,29.1,893.6,41.8,984.2,38c19.9-0.8,40.1-2.5,59.7-4
							c32.2-2.6,65.5-5.2,98.8-4.6c64.4,1.1,133.1,14.4,210.2,40.5c15.5,5.2,31.4,11,48.7,17.6c28.4,10.9,56.9,22.7,84.3,34.1
							c18.3,7.6,37.1,15.4,55.9,22.9c148.8,59.4,313.4,108.7,472.5,156.3l28.5,8.5L2042.4,310.6z"/>
					</g>
					<g>
						
							<linearGradient id="SVGID_00000047021134434240204890000014457280346327138737_" gradientUnits="userSpaceOnUse" x1="458.288" y1="86.44" x2="2043.4412" y2="86.44">
							<stop  offset="0" style="stop-color:#CEEDFD;stop-opacity:0"/>
							<stop  offset="0.9382" style="stop-color:#00AEFF"/>
						</linearGradient>
						<path style="fill:url(#SVGID_00000047021134434240204890000014457280346327138737_);" d="M2042.9,289.4
							c-48.5-15.2-98.3-30.3-146.4-45c-118.7-36-241.4-73.3-354.6-114.9c-18.1-6.7-36.3-13.6-53.9-20.3
							c-28.6-10.9-58.1-22.1-87.5-32.5c-17.4-6.1-33.4-11.4-49-16.2c-77.2-24.1-145.7-36.4-209.6-37.8c-32.3-0.7-64.6,1.4-95.9,3.4
							c-20.3,1.3-41.3,2.7-62,3.2c-90.8,2.4-182.1-11.4-264.2-39.9C681.5-23.9,644-40.7,607.7-57c-7.2-3.2-14.3-6.4-21.5-9.6
							C534-90,492.1-105.9,458.3-115.2l0.5-1.3c33.9,9.4,75.8,25.3,128.2,48.6c7.2,3.2,14.3,6.4,21.5,9.6
							c36.2,16.3,73.7,33.2,112.1,46.4C802.3,16.6,893.4,30.3,984,28c20.6-0.6,41.6-1.9,61.9-3.2c31.3-2,63.6-4.1,96-3.4
							c64,1.4,132.7,13.8,210.1,37.9c15.6,4.9,31.6,10.2,49,16.3c29.5,10.4,59,21.6,87.6,32.5c17.6,6.7,35.8,13.6,53.9,20.3
							c113.1,41.6,235.8,78.9,354.5,114.9c48.2,14.6,98,29.7,146.5,45L2042.9,289.4z"/>
					</g>
					<g>
						
							<linearGradient id="SVGID_00000073001557868241608390000010704333020163689897_" gradientUnits="userSpaceOnUse" x1="459.8731" y1="70.9526" x2="2043.9208" y2="70.9526">
							<stop  offset="0" style="stop-color:#CEEDFD;stop-opacity:0"/>
							<stop  offset="0.9382" style="stop-color:#00AEFF"/>
						</linearGradient>
						<path style="fill:url(#SVGID_00000073001557868241608390000010704333020163689897_);" d="M2043.3,268.2
							c-78.4-25.7-159.6-49.9-238.1-73.3c-87.5-26.1-177.9-53-262.7-81.6c-17.2-5.8-34.4-11.8-51.1-17.6
							c-29.9-10.4-60.8-21.1-91.5-30.9c-17.5-5.6-33.6-10.5-49.3-14.9c-77.5-22.1-146-33.6-209.5-35.2c-31.2-0.8-62.4,0.7-92.6,2.2
							c-21.2,1-43.1,2.1-64.7,2.4c-92.1,1-180.4-13.5-262.4-42.9c-33.9-12.1-67-27-99.1-41.5c-11-5-22.4-10.1-33.7-15
							c-51-22.4-94.3-37.5-128.7-44.9l0.4-1.3c34.5,7.4,77.9,22.6,129.1,45c11.3,4.9,22.7,10.1,33.7,15c32.1,14.4,65.2,29.3,99,41.4
							C803.9,4.5,892,18.9,983.8,17.9c21.5-0.2,43.4-1.3,64.6-2.4c30.2-1.5,61.5-3,92.8-2.2c63.6,1.6,132.3,13.2,209.9,35.3
							c15.7,4.5,31.8,9.3,49.3,14.9c30.8,9.8,61.7,20.6,91.6,31c16.7,5.8,34,11.8,51.1,17.6c84.8,28.6,175.2,55.5,262.7,81.6
							c78.5,23.4,159.7,47.6,238.1,73.3L2043.3,268.2z"/>
					</g>
					<g>
						
							<linearGradient id="SVGID_00000027567566858193420010000016623779495381794689_" gradientUnits="userSpaceOnUse" x1="461.4598" y1="55.4668" x2="2044.4021" y2="55.4668">
							<stop  offset="0" style="stop-color:#CEEDFD;stop-opacity:0"/>
							<stop  offset="0.9382" style="stop-color:#00AEFF"/>
						</linearGradient>
						<path style="fill:url(#SVGID_00000027567566858193420010000016623779495381794689_);" d="M2043.8,247
							c-102.2-35-209-65.4-312.2-94.8c-62.4-17.8-127-36.2-188.4-55c-15.8-4.9-31.7-9.9-47.1-14.7c-31.6-9.9-64.3-20.2-96.8-29.6
							c-17.6-5.1-33.8-9.5-49.6-13.6C1272,19.1,1203.5,8.4,1140.4,6.6c-29.9-0.9-59.9,0.1-88.9,1.1c-22.3,0.8-45.3,1.6-67.9,1.4
							C891.5,8.7,803.8-6.8,723-36.7c-30.1-11.1-59.8-24.5-88.4-37.5c-14.2-6.4-28.9-13.1-43.5-19.4
							c-50.8-21.9-94.4-35.8-129.5-41.2l0.3-1.3c35.3,5.4,79,19.3,130,41.3c14.6,6.3,29.3,13,43.5,19.4c28.6,13,58.2,26.3,88.3,37.4
							c80.6,29.8,168.1,45.2,260,45.7c22.5,0.1,45.5-0.7,67.8-1.4c29-1,59-2,89-1.1c63.3,1.9,131.9,12.5,209.8,32.7
							c15.8,4.1,32.1,8.5,49.6,13.6c32.5,9.4,65.2,19.7,96.8,29.6c15.4,4.8,31.3,9.8,47.1,14.7c61.4,18.8,125.9,37.2,188.3,55
							c103.3,29.4,210,59.8,312.3,94.9L2043.8,247z"/>
					</g>
					<g>
						
							<linearGradient id="SVGID_00000155828197640108243140000013243042090840280981_" gradientUnits="userSpaceOnUse" x1="463.0482" y1="39.982" x2="2044.8833" y2="39.982">
							<stop  offset="0" style="stop-color:#CEEDFD;stop-opacity:0"/>
							<stop  offset="0.9382" style="stop-color:#00AEFF"/>
						</linearGradient>
						<path style="fill:url(#SVGID_00000155828197640108243140000013243042090840280981_);" d="M2044.3,225.8
							c-121.6-43.5-249.9-77.6-374-110.7c-41.7-11.1-84.9-22.6-126.4-34.1c-13.8-3.9-27.5-7.7-41.2-11.6
							c-33.9-9.6-69-19.5-103.8-28.5c-17.6-4.6-34-8.6-49.9-12.3c-78-18.1-146.4-27.9-209.3-30c-28.4-1-56.9-0.4-84.5,0.1
							c-23.5,0.5-47.9,0.9-71.7,0.4c-92.1-2-179.3-18.4-258.9-48.8C697.4-60,670.7-72.2,644.9-84c-16.8-7.7-34.2-15.6-51.5-23
							c-50.1-21.2-95.2-34.2-130.4-37.5l0.2-1.3c35.4,3.3,80.6,16.3,130.9,37.6c17.4,7.4,34.7,15.3,51.6,23
							c25.8,11.8,52.4,23.9,79.5,34.2C804.6-20.6,891.5-4.2,983.5-2.2c23.8,0.5,48.1,0,71.7-0.4c27.6-0.5,56.1-1.1,84.6-0.1
							c63,2.1,131.5,11.9,209.6,30.1c15.9,3.7,32.3,7.7,49.9,12.3c34.8,9,69.9,18.9,103.9,28.5c13.7,3.9,27.4,7.7,41.2,11.6
							c41.5,11.5,84.7,23,126.4,34.1c124.1,33.1,252.4,67.3,374.1,110.8L2044.3,225.8z"/>
					</g>
					<g>
						
							<linearGradient id="SVGID_00000146495500464646565310000005847552662285947574_" gradientUnits="userSpaceOnUse" x1="464.6365" y1="24.4992" x2="2045.363" y2="24.4992">
							<stop  offset="0" style="stop-color:#CEEDFD;stop-opacity:0"/>
							<stop  offset="0.9382" style="stop-color:#00AEFF"/>
						</linearGradient>
						<path style="fill:url(#SVGID_00000146495500464646565310000005847552662285947574_);" d="M2044.7,204.6
							c-137.6-51.3-284.5-87.1-426.5-121.8c-24.2-5.9-49.3-12-73.7-18.1c-10.8-2.7-21.6-5.4-32.4-8.1c-37.3-9.4-75.8-19-113.9-27.8
							c-17.7-4-34.1-7.6-50.2-10.9c-78.2-16.1-146.6-25.1-209.2-27.4c-26.6-1-53.3-0.9-79.2-0.8c-25.1,0.1-51.1,0.2-76.5-0.7
							C891.1-14.4,804.5-31.9,726-62.8c-24.5-9.6-48.7-20.8-72.1-31.6c-18.9-8.7-38.5-17.8-58.1-26c-35-14.6-86.1-32.3-131.2-33.8
							l0.1-1.3c45.3,1.6,96.7,19.3,131.8,34c19.7,8.2,39.3,17.3,58.2,26c23.4,10.8,47.5,22,72,31.6C805-33.2,891.3-15.8,983.3-12.3
							c25.4,0.9,51.3,0.8,76.4,0.7c25.9-0.1,52.6-0.2,79.2,0.8c62.7,2.3,131.2,11.3,209.5,27.5c16.1,3.3,32.5,6.9,50.2,10.9
							c38.1,8.7,76.6,18.4,113.9,27.8c10.8,2.7,21.6,5.4,32.4,8.1c24.4,6,49.4,12.2,73.7,18.1c142.1,34.7,289,70.5,426.7,121.8
							L2044.7,204.6z"/>
					</g>
					<g>
						
							<linearGradient id="SVGID_00000021808844797865931790000002656944573644009096_" gradientUnits="userSpaceOnUse" x1="466.1801" y1="8.9933" x2="2045.8428" y2="8.9933">
							<stop  offset="0" style="stop-color:#CEEDFD;stop-opacity:0"/>
							<stop  offset="0.9382" style="stop-color:#00AEFF"/>
						</linearGradient>
						<path style="fill:url(#SVGID_00000021808844797865931790000002656944573644009096_);" d="M2045.2,183.4
							c-150.9-58.5-314.1-94.2-472-128.7c-9.4-2-18.7-4.1-28-6.1l-17.9-4c-42.4-9.4-86.3-19.1-129.6-27.7
							c-17.7-3.5-34.3-6.7-50.5-9.6c-78.3-14.2-146.7-22.3-209.1-24.9c-24.4-1-48.9-1.2-72.6-1.5c-27.1-0.3-55.2-0.5-82.6-2
							c-92.2-5-178.1-23.4-255.5-54.8c-22.3-9-44.3-19.4-65.7-29.4c-20.7-9.7-42.1-19.7-63.7-28.6c-35-14.3-86.4-31.2-132-30.2
							l0-1.3c45.9-1.1,97.5,15.9,132.7,30.3c21.6,8.9,43,18.9,63.7,28.6c21.3,10,43.3,20.3,65.6,29.3
							c77.2,31.3,162.9,49.7,254.9,54.7c27.3,1.4,55.4,1.7,82.5,2c23.7,0.2,48.2,0.5,72.6,1.5c62.4,2.6,130.9,10.7,209.4,24.9
							c16.2,2.9,32.8,6.1,50.5,9.6c43.3,8.6,87.2,18.3,129.6,27.7l17.9,4c9.3,2,18.6,4.1,28,6.1c157.9,34.5,321.2,70.2,472.2,128.8
							L2045.2,183.4z"/>
					</g>
					<g>
						
							<linearGradient id="SVGID_00000002357692123067352650000013951701381473863567_" gradientUnits="userSpaceOnUse" x1="467.659" y1="-6.734" x2="2046.324" y2="-6.734">
							<stop  offset="0" style="stop-color:#CEEDFD;stop-opacity:0"/>
							<stop  offset="0.9382" style="stop-color:#00AEFF"/>
						</linearGradient>
						<path style="fill:url(#SVGID_00000002357692123067352650000013951701381473863567_);" d="M2045.6,162.2
							c-161.9-65.3-341.4-99.6-499.8-129.8c-52.9-10.2-100.5-19.2-148.7-27.4c-17.8-3-34.4-5.7-50.8-8.3
							c-78.4-12.2-146.8-19.5-209-22.3c-21.6-1-43.3-1.5-64.3-2c-29.7-0.7-60.4-1.4-90.3-3.5C890.6-37.6,805.2-57,729.1-88.9
							c-20.4-8.5-40.6-18.2-60.1-27.5c-22.1-10.6-45-21.5-68.3-30.9c-35.1-14.1-86.7-30.2-132.8-26.5l-0.2-1.3
							c46.5-3.7,98.3,12.4,133.6,26.6c23.4,9.4,46.3,20.3,68.4,30.9c19.5,9.3,39.7,18.9,60,27.4c76,31.8,161.2,51.2,253.1,57.7
							c29.9,2.1,60.6,2.8,90.2,3.5c21,0.5,42.7,1,64.3,2c62.3,2.8,130.7,10.1,209.2,22.3c16.4,2.5,33.1,5.2,50.8,8.3
							c48.1,8.2,95.8,17.3,148.7,27.4c158.5,30.2,338,64.5,500.1,129.9L2045.6,162.2z"/>
					</g>
					<g>
						
							<linearGradient id="SVGID_00000018227147929319286630000009551358214960372109_" gradientUnits="userSpaceOnUse" x1="469.1395" y1="-22.6756" x2="2046.8037" y2="-22.6756">
							<stop  offset="0" style="stop-color:#CEEDFD;stop-opacity:0"/>
							<stop  offset="0.9382" style="stop-color:#00AEFF"/>
						</linearGradient>
						<path style="fill:url(#SVGID_00000018227147929319286630000009551358214960372109_);" d="M2046.1,140.9
							c-156-65.5-332.3-97.5-499.6-124.8c-41-6.7-95.1-15.4-149.9-23.2c-17.5-2.5-34.6-4.8-51.1-6.9
							c-78.2-10.2-146.6-16.6-208.9-19.7c-17.9-0.9-35.9-1.5-53.4-2.2c-33.1-1.2-67.4-2.5-100.7-5.3c-92.2-8-177-28.5-252-60.8
							c-18.7-8.1-37.3-17.1-55.3-25.8c-23.4-11.3-47.5-23.1-72.3-32.9c-49.8-19.7-97.3-27.8-133.6-22.8l-0.3-1.3
							c25.9-3.5,70.3-2.4,134.6,22.9c24.8,9.8,49,21.6,72.4,32.9c18,8.7,36.5,17.7,55.2,25.8c74.8,32.3,159.4,52.7,251.4,60.7
							c33.2,2.9,67.5,4.1,100.6,5.3c17.5,0.6,35.5,1.3,53.4,2.2c62.4,3.1,130.8,9.5,209.1,19.7c16.5,2.1,33.7,4.5,51.1,6.9
							c54.8,7.7,108.9,16.5,149.9,23.2c167.4,27.3,343.8,59.4,500,124.9L2046.1,140.9z"/>
					</g>
					<g>
						
							<linearGradient id="SVGID_00000124859349899186848470000014229120349545979043_" gradientUnits="userSpaceOnUse" x1="470.6232" y1="-38.7786" x2="2047.2833" y2="-38.7786">
							<stop  offset="0" style="stop-color:#CEEDFD;stop-opacity:0"/>
							<stop  offset="0.9382" style="stop-color:#00AEFF"/>
						</linearGradient>
						<path style="fill:url(#SVGID_00000124859349899186848470000014229120349545979043_);" d="M2046.5,119.7
							c-160-69.8-341.6-98.4-499.4-119.8c-54.2-7.4-103.6-13.6-151.1-19c-17.2-1.9-34.5-3.8-51.4-5.6
							c-77.5-8.1-145.8-13.7-208.8-17.1c-12.8-0.7-25.8-1.3-38.4-1.9c-37.9-1.8-77.2-3.7-115.2-7.6c-92.2-9.5-176.4-31-250.3-63.8
							c-17.3-7.7-34.5-16.2-51.1-24.4c-24.4-12.1-49.6-24.6-75.6-34.7c-50-19.4-97.7-26.2-134.4-19.2l-0.4-1.3
							c37-7.1,85.2-0.2,135.5,19.3c26.1,10.1,51.4,22.6,75.8,34.7c16.6,8.2,33.7,16.7,51,24.4c73.7,32.7,157.7,54.1,249.7,63.7
							c37.9,3.9,77.1,5.8,115.1,7.6c12.6,0.6,25.5,1.2,38.4,1.9c63.1,3.4,131.4,9,208.9,17.1c16.9,1.8,34.2,3.6,51.4,5.6
							c47.5,5.4,96.9,11.6,151.1,19c157.8,21.4,339.7,50.1,499.8,119.9L2046.5,119.7z"/>
					</g>
					<g>
						
							<linearGradient id="SVGID_00000108267597483496712410000006904855249984470144_" gradientUnits="userSpaceOnUse" x1="472.1091" y1="-55.0556" x2="2047.7645" y2="-55.0556">
							<stop  offset="0" style="stop-color:#CEEDFD;stop-opacity:0"/>
							<stop  offset="0.9382" style="stop-color:#00AEFF"/>
						</linearGradient>
						<path style="fill:url(#SVGID_00000108267597483496712410000006904855249984470144_);" d="M2047,98.5
							c-154.7-70-331.3-96.6-499.1-114.8c-48.9-5.3-100.2-10.3-152.3-14.7c-16.7-1.4-34.1-2.8-51.7-4.2
							c-72.9-5.8-143.1-10.7-208.7-14.5c-5.5-0.3-10.9-0.6-16.4-0.9c-45.1-2.6-91.7-5.2-136.6-10.6
							c-92.2-11.1-175.8-33.5-248.5-66.8c-16-7.3-31.9-15.4-47.3-23.1c-25.2-12.7-51.3-25.9-78.5-36.3
							c-50.2-19.1-98.2-24.6-135.3-15.5l-0.4-1.3c37.4-9.2,85.8-3.6,136.4,15.6c27.3,10.4,53.4,23.6,78.7,36.4
							c15.4,7.8,31.3,15.8,47.2,23.1c72.5,33.2,155.9,55.6,248,66.6c44.9,5.4,89.4,7.9,136.5,10.6c5.5,0.3,10.9,0.6,16.4,0.9
							c65.7,3.8,135.9,8.7,208.8,14.5c17.6,1.4,35,2.8,51.7,4.2c52.1,4.4,103.4,9.4,152.3,14.7c168,18.2,344.8,44.8,499.7,114.9
							L2047,98.5z"/>
					</g>
					<g>
						
							<linearGradient id="SVGID_00000067928456167229011700000003145074318624227002_" gradientUnits="userSpaceOnUse" x1="473.5989" y1="-71.4616" x2="2048.2444" y2="-71.4616">
							<stop  offset="0" style="stop-color:#CEEDFD;stop-opacity:0"/>
							<stop  offset="0.9382" style="stop-color:#00AEFF"/>
						</linearGradient>
						<path style="fill:url(#SVGID_00000067928456167229011700000003145074318624227002_);" d="M2047.5,77.3
							c-156.4-73.5-340-96.7-498.9-109.8c-46.2-3.8-95-7.2-153.5-10.5c-17.3-1-34.6-2-52-2.9l-35-1.9c-56.9-3.1-115.7-6.4-173.6-10
							c-49.3-3.1-101.7-6.6-152.4-13.6c-92.2-12.6-175.3-36.1-246.8-69.8c-14.9-7-29.7-14.6-44-22c-25.9-13.4-52.8-27.2-81-37.8
							c-50.4-18.8-98.7-23-136.1-11.9l-0.5-1.3c37.8-11.3,86.5-7,137.3,11.9c28.3,10.6,55.2,24.4,81.2,37.8
							c14.3,7.4,29.1,15,43.9,22c71.3,33.6,154.2,57,246.3,69.6c50.7,6.9,103,10.5,152.3,13.5c57.9,3.6,116.7,6.8,173.6,10l35,1.9
							c17.4,1,34.8,1.9,52,2.9c58.5,3.4,107.3,6.7,153.5,10.5c105,8.6,184.5,18.9,257.5,33.5c92.7,18.4,171.8,43.5,242.1,76.5
							L2047.5,77.3z"/>
					</g>
					<g>
						
							<linearGradient id="SVGID_00000121986634399536480620000008236888503423149989_" gradientUnits="userSpaceOnUse" x1="475.0912" y1="-87.9641" x2="2048.7253" y2="-87.9641">
							<stop  offset="0" style="stop-color:#CEEDFD;stop-opacity:0"/>
							<stop  offset="0.9382" style="stop-color:#00AEFF"/>
						</linearGradient>
						<path style="fill:url(#SVGID_00000121986634399536480620000008236888503423149989_);" d="M2047.9,56.1
							c-157-76.5-340.2-95.9-498.7-104.8c-55.1-3.1-109.1-4.9-154.7-6.3l-9.7-0.3c-14.2-0.4-28.4-0.8-42.6-1.3
							c-66.4-2.1-137.6-4.6-208.6-9.3c-61.5-4.1-108.3-8.9-151.9-15.6c-93.6-14.4-173.7-38.2-245-72.8c-13.8-6.7-27.6-14-41-21
							c-26.5-14-54-28.5-83.1-39.1c-68.3-25-115.1-15.9-136.9-8.2l-0.6-1.2c22.1-7.7,69.4-17,138.2,8.2
							c29.2,10.7,56.7,25.2,83.3,39.2c13.3,7,27.1,14.3,40.9,21c71.2,34.5,151.2,58.2,244.5,72.6c43.5,6.7,90.3,11.5,151.7,15.6
							c70.9,4.7,142.1,7.3,208.5,9.3c14.3,0.4,28.5,0.9,42.6,1.3l9.7,0.3c45.6,1.4,99.6,3.2,154.7,6.3
							c158.7,8.9,342.2,28.3,499.4,104.9L2047.9,56.1z"/>
					</g>
					<g>
						
							<linearGradient id="SVGID_00000106852717049385842820000005274126760332980888_" gradientUnits="userSpaceOnUse" x1="476.5872" y1="-104.5768" x2="2049.2051" y2="-104.5768">
							<stop  offset="0" style="stop-color:#CEEDFD;stop-opacity:0"/>
							<stop  offset="0.9382" style="stop-color:#00AEFF"/>
						</linearGradient>
						<path style="fill:url(#SVGID_00000106852717049385842820000005274126760332980888_);" d="M2048.4,34.9
							c-86.7-43.8-189.7-72.3-315.1-87.1c-108.9-12.9-222.7-14.3-339.3-14.6c-121.8-0.4-231.5-1.7-339.5-14.2
							c-125.7-14.6-229.2-42.7-316.3-86.1c-12.9-6.4-25.8-13.4-38.3-20.1c-27-14.6-55-29.7-84.9-40.4
							c-68.6-24.6-115.7-13.4-137.8-4.5l-0.7-1.2c22.3-8.9,69.9-20.3,139.1,4.5c30.1,10.8,58.1,25.9,85.1,40.5
							c12.5,6.7,25.3,13.7,38.2,20.1c86.9,43.3,190.1,71.4,315.7,86C1162.6-70,1272.2-68.6,1394-68.3
							c116.7,0.4,230.5,1.7,339.5,14.7c125.6,14.9,228.9,43.4,315.7,87.3L2048.4,34.9z"/>
					</g>
				</g>
			</g>
		</g>
	</g>
</g>
<g id="Layer_2">
	<g>
		<rect x="249" y="121" class="st39" width="1384" height="136"/>
		<line class="st39" x1="249" y1="189" x2="1633" y2="189"/>
		<line class="st39" x1="1287" y1="121" x2="1287" y2="257"/>
		<line class="st39" x1="941" y1="121" x2="941" y2="257"/>
		<line class="st39" x1="595" y1="121" x2="595" y2="257"/>
	</g>
	<g>
		<rect x="890" y="540" class="st39" width="0" height="0"/>
		<line class="st39" x1="890" y1="540" x2="890" y2="540"/>
		<line class="st39" x1="890" y1="540" x2="890" y2="540"/>
		<line class="st39" x1="890" y1="540" x2="890" y2="540"/>
		<line class="st39" x1="890" y1="540" x2="890" y2="540"/>
	</g>
	<g>
		<rect x="162.5" y="200.5" class="st40" width="1556.5" height="720.5"/>
		<line class="st40" x1="162.5" y1="330.3" x2="1719" y2="330.3"/>
		<line class="st40" x1="1200.2" y1="921" x2="1200.2" y2="200.5"/>
		<line class="st40" x1="681.3" y1="921" x2="681.3" y2="200.5"/>
		<g>
			<rect x="1200.5" y="273.9" class="st40" width="516.5" height="56"/>
			<line class="st40" x1="1562.7" y1="329.9" x2="1562.7" y2="273.9"/>
			<line class="st40" x1="1381.6" y1="329.9" x2="1381.6" y2="273.9"/>
		</g>
	</g>
	<text transform="matrix(1 0 0 1 262.2339 274.5454)" class="st41 st42">Definition of Wrongful Conduct(s)</text>
	<text transform="matrix(1 0 0 1 757.2598 263.4546)"><tspan x="0" y="0" class="st41 st42">Sample Offense/ Explanation/ Guideline</tspan><tspan x="0" y="26.4" class="st41 st42">(Non-exhaustive)</tspan></text>
	<text transform="matrix(1 0 0 1 1297.1172 247.792)" class="st41 st42">Punishment for the alleged offense</text>
	<text transform="matrix(1 0 0 1 200.6621 400.104)"><tspan x="0" y="0" class="st41 st42">1. Non-cooperation with security personnel</tspan><tspan x="0" y="26.4" class="st41 st42">authorized to check the student’s bodies, bags </tspan><tspan x="0" y="52.8" class="st41 st42">and belongings in the prescribed manner.</tspan><tspan x="0" y="105.6" class="st41 st42">2. Violating the parking rule of NSU.</tspan></text>
	<text transform="matrix(1 0 0 1 711.896 360.9351)"><tspan x="0" y="0" class="st41 st42">Student is non compliant to the request of security </tspan><tspan x="0" y="26.4" class="st41 st42">to check and or misbehaving with the security </tspan><tspan x="0" y="52.8" class="st41 st42">personnel.</tspan><tspan x="0" y="79.2" class="st41 st42">Showing unnecessary arrogance and anger against</tspan><tspan x="0" y="105.6" class="st41 st42">security personnel during security checks.</tspan><tspan x="0" y="132" class="st41 st42">Failure to produce parking card.</tspan><tspan x="0" y="158.4" class="st41 st42">Failure to produce NSU ID card to the secuirty </tspan><tspan x="0" y="184.8" class="st41 st42">personnell by vehicle passengers.</tspan></text>
	<g>
		<rect x="1201" y="274.2" class="st40" width="518" height="58.8"/>
		<line class="st40" x1="1546.3" y1="333" x2="1546.3" y2="274.2"/>
		<line class="st40" x1="1373.7" y1="333" x2="1373.7" y2="274.2"/>
	</g>
	<g>
		<rect x="1201.5" y="330.8" class="st40" width="518" height="230.2"/>
		<line class="st40" x1="1546.8" y1="561" x2="1546.8" y2="330.8"/>
		<line class="st40" x1="1374.1" y1="561" x2="1374.1" y2="330.8"/>
	</g>
	<g>
		<rect x="1199.5" y="561" class="st40" width="518" height="360"/>
		<line class="st40" x1="1544.8" y1="921" x2="1544.8" y2="561"/>
		<line class="st40" x1="1372.1" y1="921" x2="1372.1" y2="561"/>
	</g>
	<g>
		<rect x="682.5" y="703.8" class="st40" width="518" height="0.2"/>
		<line class="st40" x1="1027.8" y1="704" x2="1027.8" y2="703.8"/>
		<line class="st40" x1="855.1" y1="704" x2="855.1" y2="703.8"/>
	</g>
	<g>
		<rect x="682.5" y="560.8" class="st40" width="518" height="0.2"/>
		<line class="st40" x1="1027.8" y1="561" x2="1027.8" y2="560.8"/>
		<line class="st40" x1="855.1" y1="561" x2="855.1" y2="560.8"/>
	</g>
	<g>
		<rect x="1201.5" y="703.8" class="st40" width="518" height="0.2"/>
		<line class="st40" x1="1546.8" y1="704" x2="1546.8" y2="703.8"/>
		<line class="st40" x1="1374.1" y1="704" x2="1374.1" y2="703.8"/>
	</g>
	<text transform="matrix(1 0 0 1 1245.8477 309.0796)" class="st41 st42">1st time</text>
	<text transform="matrix(1 0 0 1 1416.0127 309.6104)" class="st41 st42">2nd time</text>
	<text transform="matrix(1 0 0 1 1586.6367 309.6104)" class="st41 st42">3rd time</text>
	<g id="table_x5F_mf">
		<text transform="matrix(1 0 0 1 1230.8828 360.8442)" class="st41 st42">VW</text>
		<text transform="matrix(1 0 0 1 1391.3115 360.6621)" class="st41 st42">WW &amp; CG</text>
		<text transform="matrix(1 0 0 1 1571.5713 362.8701)" class="st41 st42">SP</text>
		<text transform="matrix(1 0 0 1 1393.5713 747.8701)" class="st41 st42">SP</text>
		<text transform="matrix(1 0 0 1 1563.5713 752.8701)" class="st41 st42">EP</text>
	</g>
	<text transform="matrix(1 0 0 1 712.208 594.1426)"><tspan x="0" y="0" class="st41 st42">Noncompliance to the parking rules of the university</tspan><tspan x="0" y="26.4" class="st41 st42">(i.e wrong parking, over speeding inside and around</tspan><tspan x="0" y="52.8" class="st41 st42">the campus) or misbehaving witht he secuirty</tspan><tspan x="0" y="79.2" class="st41 st42">personnel at the parking area</tspan></text>
	<text transform="matrix(1 0 0 1 1231.8828 594.0264)"><tspan x="0" y="0" class="st41 st42">MF of BDT 100</tspan><tspan x="0" y="26.4" class="st41 st42">and seizing of</tspan><tspan x="0" y="52.8" class="st41 st42">NSU parking</tspan><tspan x="0" y="79.2" class="st41 st42">card for 3 days</tspan></text>
	<text transform="matrix(1 0 0 1 1230.8828 748.0264)"><tspan x="0" y="0" class="st41 st42">MF up to </tspan><tspan x="0" y="26.4" class="st41 st42">BDT 25,000</tspan></text>
	<text transform="matrix(1 0 0 1 1392.2207 594.1426)" class="st41 st42">WW</text>
	<text transform="matrix(1 0 0 1 1562.623 594.3242)" class="st41 st42">CG</text>
	<text transform="matrix(1 0 0 1 713.4816 737.9868)"><tspan x="0" y="0" class="st41 st42">A student trying to bring unauthorized visitor(s)</tspan><tspan x="0" y="26.4" class="st41 st42">from the parking entry points.</tspan></text>
</g>
</svg>
